<svg width="130" height="130" viewBox="0 0 130 130" fill="none" xmlns="http://www.w3.org/2000/svg">
<g clip-path="url(#clip0_111_222)">
<path d="M65.3154 47.7954C67.3169 42.4941 69.8046 37.7018 73.501 33.3628C81.276 24.181 92.4263 18.524 104.428 17.6721C105.976 17.4766 107.667 17.6104 109.227 17.6334C107.408 21.6824 104.978 25.3897 102.266 28.8955C100.129 31.6582 97.5781 34.2226 94.9179 36.4851C87.5984 42.7102 79.5838 46.2584 70.0484 47.4572C68.4749 47.6157 66.8971 47.7612 65.3154 47.7954Z" fill="#232637"/>
<path d="M64.6803 47.6945C59.6452 47.7074 54.6475 46.8297 49.9182 45.1024C38.4771 40.822 28.9423 32.594 23.0341 21.9023C22.3095 20.604 21.7066 19.2245 21.0786 17.877C28.3659 17.7046 35.7735 18.9926 42.3228 22.2995C52.4729 27.4244 61.1001 36.8298 64.6803 47.6945Z" fill="#232637"/>
<path d="M98.5351 45.213C100.802 43.8793 103.102 41.7635 104.758 39.747C109.604 33.8448 111.301 25.3999 110.579 17.9004C110.589 17.9068 110.599 17.9124 110.608 17.9193C112.099 19.0509 113.362 20.4742 114.534 21.9231C118.356 26.648 120.916 32.0414 121.839 38.0727C123.031 45.7029 121.375 53.5047 117.187 59.9928C116.033 61.7915 114.633 63.3645 113.375 65.0811C118.286 70.1697 121.342 76.762 122.053 83.7977C122.811 91.879 120.544 100.295 115.476 106.692C113.942 108.627 112.024 110.184 110.485 112.081L110.377 112.214C110.944 108.46 110.677 104.939 109.864 101.252C109.238 98.6986 108.114 96.2011 106.694 93.9927C102.638 87.6799 95.8627 83.6076 88.6304 82.0074C90.1543 80.9796 91.8904 80.2644 93.7237 80.0495C95.3818 79.8553 97.6712 80.6683 99.0666 79.4886C100.714 78.0955 99.5971 73.7924 99.7247 71.8068C100.105 71.5986 100.743 71.3363 100.968 70.9522C101.117 70.6963 101.058 70.6114 100.962 70.3605C100.635 70.0346 100.192 69.9392 99.7627 69.7976C100.264 69.1537 101.248 68.6497 101.575 67.9581C101.509 67.4532 100.925 67.0803 100.669 66.6467C100.494 66.35 100.477 66.0174 100.569 65.6922C100.989 64.2134 103.305 64.04 104.429 63.3587C104.798 63.1347 105.104 62.815 105.198 62.3814C105.271 62.0415 105.172 61.7408 105.021 61.4391C104.625 60.6545 103.991 59.9627 103.447 59.2776C102.239 57.7582 100.906 56.2453 99.9178 54.5708C98.6225 52.3751 99.6882 51.8674 100.144 49.8603C100.528 48.171 99.3839 46.5737 98.5351 45.213Z" fill="#232637"/>
<path d="M16.7265 65.2037C16.1593 64.5289 15.5258 63.9071 14.9541 63.2327C9.7136 56.9651 7.17758 48.8726 7.90375 40.7351C8.60221 31.8978 12.8308 23.7141 19.6351 18.0317C19.848 18.3024 19.4922 19.92 19.4486 20.3185C19.1811 22.7615 19.2441 25.3265 19.7275 27.7362C21.2174 35.1638 25.5725 41.1547 31.8154 45.333C30.9971 46.3976 30.069 47.6099 29.8466 48.9682C29.6358 50.2544 30.177 51.1316 30.8886 52.1294C30.3573 53.4023 30.2649 54.7812 29.5299 55.9856C28.335 57.9441 25.8013 59.2295 24.8259 60.7917C24.5864 61.1756 24.3853 61.7479 24.5348 62.201C25.0096 63.6398 27.1546 63.8495 28.2856 64.5602C29.7938 65.5079 28.5807 66.7503 28.9288 68.0274C29.1121 68.6992 29.6997 68.9884 30.2516 69.3223C29.8127 69.521 29.2747 69.8312 29.0154 70.2508C28.3509 71.3252 30.1783 72.6873 30.2997 73.8823C30.469 75.5484 29.1086 77.175 29.5445 78.7825C29.687 79.3075 30.1998 79.9918 30.7172 80.1994C31.3714 80.4617 32.4593 80.2105 33.1462 80.1646C36.7979 79.9201 39.0806 80.5448 42.2736 82.2445C39.3953 82.6361 36.5242 83.3036 33.8749 84.5169C27.2113 87.5681 22.8979 92.9955 20.3973 99.7826C19.1339 103.853 18.7102 107.981 19.7694 112.145L19.5378 111.933C12.5957 105.56 8.2735 97.6109 7.87991 88.0702C7.51403 79.2025 10.7812 71.6505 16.7265 65.2037Z" fill="#232637"/>
<path d="M64.9276 81.1744C64.6169 80.5489 64.441 79.8047 64.2371 79.1342C61.7928 71.09 61.3876 63.3623 63.1543 55.1331C63.5853 53.1256 64.0835 50.8885 65.0513 49.0752C65.1467 49.1869 65.2048 49.3193 65.2643 49.4527C66.0944 51.3182 66.5907 53.5521 66.9757 55.5532C68.6872 64.1179 67.978 72.9903 64.9276 81.1744Z" fill="#232637"/>
<path d="M20.998 112.305C23.064 107.545 26.3012 102.855 29.7044 98.9501C38.103 89.1225 50.1339 83.1286 63.0374 82.3433C63.5341 82.295 64.0594 82.3433 64.5587 82.3562C62.6934 88.2068 58.097 95.273 53.7881 99.6346C45.5162 108.008 34.7523 112.286 23.0249 112.35C22.3449 112.365 21.677 112.344 20.998 112.305Z" fill="#232637"/>
<path d="M109.359 112.369C103.881 112.394 98.7157 111.982 93.4866 110.236C83.1762 106.876 74.5047 99.7652 69.1905 90.3125C67.7182 87.7421 66.6846 85.0365 65.3652 82.4C68.2588 82.1112 72.9967 82.9526 75.7961 83.7037C86.3112 86.525 95.7873 93.1329 102.464 101.703C105.096 105.083 107.228 108.669 109.359 112.369Z" fill="#232637"/>
</g>
<defs>
<clipPath id="clip0_111_222">
<rect width="130" height="130" fill="white"/>
</clipPath>
</defs>
</svg>
