<svg width="150" height="150" viewBox="0 0 150 150" fill="none" xmlns="http://www.w3.org/2000/svg">
<g clip-path="url(#clip0_110_191)">
<path d="M25.3657 71.8242C25.4201 66.975 25.4317 62.1253 25.4005 57.276L25.3919 25.3956L71.3232 25.3892C70.8741 38.6979 67.0813 48.6778 57.7422 58.3223C48.8151 66.9625 37.7345 71.4482 25.3657 71.8242ZM43.653 32.2955C36.6931 32.8406 31.4924 38.9239 32.036 45.884C32.5795 52.8438 38.6615 58.0461 45.6216 57.5042C52.5841 56.9622 57.7884 50.8778 57.2447 43.9153C56.7009 36.9529 50.6152 31.75 43.653 32.2955Z" fill="#232637"/>
<path d="M124.617 72.6346C121.355 69.8059 118.36 66.5407 115.297 63.4906L96.5215 44.7096L83.87 32.0693C82.3081 30.5527 80.7578 29.0239 79.2195 27.483C78.59 26.8548 77.7175 26.1587 77.25 25.4083C80.5614 25.1621 84.0193 25.3642 87.3455 25.3735C87.3782 26.8039 87.4974 28.2152 87.8921 29.5966C88.7336 32.4685 90.6853 34.8863 93.3147 36.315C95.8417 37.7149 98.8265 38.0366 101.594 37.2075C104.559 36.2935 106.638 34.366 108.079 31.6626C108.648 33.5865 109.44 35.3678 110.658 36.9739C112.506 39.4107 115.587 41.5265 118.654 41.9478C117.931 42.4138 117.204 42.8639 116.551 43.4281C114.561 45.1477 113.228 47.874 113.055 50.4981C112.866 53.3655 113.92 56.3496 115.823 58.4936C117.866 60.7947 120.592 61.9525 123.63 62.1519C123.967 62.1573 124.24 62.1682 124.561 62.2774C124.766 63.2869 124.625 64.579 124.625 65.6165L124.617 72.6346Z" fill="#232637"/>
<path d="M104.298 32.0997C102.71 33.6696 100.835 34.6247 98.5715 34.6602C96.4811 34.6929 94.4824 33.8275 93.0064 32.3562C91.012 30.3683 90.4513 28.112 90.4661 25.3794L106.762 25.3506C106.629 28.0999 106.069 29.9547 104.298 32.0997Z" fill="#232637"/>
<path d="M124.51 39.6224C123.993 39.6368 123.474 39.6417 122.956 39.6372C119.362 39.5962 116.209 38.5134 113.679 35.8936C110.826 32.9392 110.275 29.329 110.345 25.3821L124.601 25.3716C124.703 30.1104 124.548 34.8823 124.51 39.6224Z" fill="#232637"/>
<path d="M45.6217 57.5043C38.6616 58.0461 32.5796 52.8439 32.0361 45.884C31.4925 38.924 36.6932 32.8407 43.6531 32.2956C50.6153 31.7501 56.701 36.953 57.2448 43.9154C57.7885 50.8779 52.5842 56.9622 45.6217 57.5043Z" fill="#E2E2E2"/>
<path d="M119.214 57.5722C117.519 56.183 116.448 54.3726 116.166 52.1891C115.902 50.1382 116.403 48.0738 117.681 46.4328C119.013 44.7213 120.966 43.7193 123.097 43.457C123.562 43.3893 124.069 43.408 124.54 43.3887L124.618 59.1223C122.451 59.1954 120.989 58.8432 119.214 57.5722Z" fill="#232637"/>
<path d="M71.6555 64.2375C71.6718 61.4263 71.6707 58.615 71.6522 55.8038C71.6494 54.4698 71.553 53.0515 71.6911 51.7276C71.7519 51.146 71.8626 50.6035 72.1494 50.0877C72.6732 49.1458 73.4556 48.7653 74.4424 48.4779C74.5737 48.466 74.7052 48.4581 74.8369 48.4544C75.7491 48.4332 76.662 48.825 77.3084 49.4653C77.8266 49.9788 78.0859 50.6012 78.2183 51.3095C78.4991 52.8147 78.3377 54.495 78.3347 56.0275C78.3165 58.7296 78.327 61.4319 78.3668 64.134C84.9827 68.4042 92.0744 71.9401 98.7849 76.0546C91.9745 76.0801 85.1642 76.055 78.3541 75.9794C78.3008 78.5066 78.3506 81.0452 78.3528 83.5737C80.269 85.3835 82.3287 87.1104 84.093 89.0674C81.0837 89.0571 78.0741 89.0805 75.0653 89.1375C71.8937 89.16 68.7175 89.2038 65.5481 89.0698C66.5504 88.2605 67.4409 87.3199 68.3718 86.4309C69.4658 85.4061 70.5714 84.3933 71.6881 83.393C71.6514 80.9388 71.6402 78.4844 71.6542 76.0301C67.9958 75.8767 64.2625 76.0279 60.599 76.0494C57.4004 76.0681 54.199 75.9484 51.0015 76.0384C51.9038 75.4008 52.9398 74.8794 53.9021 74.3313L59.8399 71.0072C63.8051 68.795 67.6888 66.4427 71.6555 64.2375Z" fill="#232637"/>
<path d="M26.1659 83.3957C25.8783 81.6649 25.5156 79.9622 25.46 78.2012C36.9339 79.2844 48.5271 84.4654 56.8151 92.5063C65.2812 100.72 71.2765 113.07 71.4645 124.967C69.9043 124.946 68.3832 124.606 66.872 124.252C66.0454 122.621 65.5505 120.789 64.8071 119.11C59.0125 106.164 49.2571 95.3904 36.947 88.3437C33.45 86.3601 29.9021 84.8476 26.1659 83.3957Z" fill="#232637"/>
<path d="M78.3276 124.959C78.7674 113.9 82.9934 103.327 90.2979 95.012C98.6937 85.3909 110.583 79.5188 123.325 78.6987L124.456 78.6484C124.059 88.9723 119.502 99.6006 112.823 107.422C104.299 117.403 92.7784 123.89 79.621 124.925L78.3276 124.959Z" fill="#232637"/>
<path d="M58.231 122.028C56.3094 121.567 54.2645 120.405 52.5219 119.485C42.9614 114.464 35.2429 106.536 30.4798 96.8439C29.7059 95.2495 28.8973 93.5959 28.373 91.8999C29.2668 92.2432 30.1399 92.6529 30.9982 93.0766C41.2287 98.1261 50.2536 106.885 55.753 116.865C56.6583 118.508 57.627 120.248 58.231 122.028Z" fill="#232637"/>
</g>
<defs>
<clipPath id="clip0_110_191">
<rect width="150" height="150" fill="white"/>
</clipPath>
</defs>
</svg>
