<svg width="135" height="135" viewBox="0 0 135 135" fill="none" xmlns="http://www.w3.org/2000/svg">
<path d="M51.2181 23.5023C54.4182 20.6575 57.8999 18.0728 61.2407 15.3934C63.4504 13.6214 65.5991 11.6386 67.8998 10C68.6679 10.341 70.2072 11.809 70.9523 12.4112L78.9316 18.8337L111.212 44.824L124.311 55.4339C125.863 56.709 127.494 57.9069 128.993 59.2428L128.95 125.789L80.0748 125.799L80.0802 87.0937C77.3018 86.974 74.4884 87.0556 71.7062 87.0595L55.7513 87.1248C55.6887 90.833 55.7584 94.5541 55.7532 98.2643L55.736 125.784C39.5039 125.967 23.2529 125.763 7.01848 125.792L7 59.0987C11.6494 55.1629 16.4939 51.4315 21.2416 47.6142C24.4758 45.0137 27.6437 42.1872 31.0298 39.7937C31.2215 45.5575 31.1044 51.3613 31.1128 57.129L31.0356 99.1131C31.0062 106.225 31.0215 113.336 31.0816 120.448C37.5366 120.585 44.0191 120.46 50.4773 120.457L50.4912 56.6456C53.5895 54.0299 56.8122 51.5353 59.9644 48.9832C62.6793 46.7847 65.3382 44.5067 68.0897 42.3557L68.0474 69.0951C68.0373 73.2824 67.9417 77.477 68.0096 81.6635L85.2813 81.6884C85.4098 94.5866 85.315 107.506 85.2654 120.406C91.7627 120.519 98.2794 120.426 104.779 120.425C104.84 117.912 104.773 115.383 104.769 112.869L104.791 100.912L104.805 62.9972C100.292 58.9584 95.2731 55.3748 90.5633 51.5622C85.2933 47.2737 79.9917 43.0245 74.6586 38.8146C72.4631 37.0733 70.3471 35.2289 68.0949 33.5604C68.0842 34.2138 68.0453 34.8664 68.0128 35.5189C66.5994 36.5044 65.2807 37.7346 63.9278 38.8138C59.6548 42.2223 55.4889 45.7579 51.1994 49.1467L51.2181 23.5023ZM67.9944 17.0432C68.1385 20.2642 68.0339 23.4896 67.9901 26.7118C71.4142 29.2343 74.6528 32.0097 77.9741 34.6647L95.1699 48.4136L104.882 56.2247C106.6 57.6072 108.571 58.9603 110.077 60.5624L110.133 120.407L117.904 120.457C117.983 120.296 118.007 120.187 118.013 120.007C118.217 114.598 117.99 108.815 117.997 103.353C118.018 87.8834 117.832 72.3887 118.119 56.9219C115.995 55.1574 113.764 53.5213 111.616 51.7854L85.0093 30.4669C80.9995 27.2238 76.9574 24.0209 72.8835 20.8584C71.5455 19.8022 69.4005 17.7874 67.9944 17.0432Z" fill="#232638"/>
</svg>
