<svg width="135" height="135" viewBox="0 0 135 135" fill="none" xmlns="http://www.w3.org/2000/svg">
<g clip-path="url(#clip0_111_230)">
<path d="M-0.175293 42.9977L67.7695 20.6391C68.6501 20.5613 82.653 25.388 84.7679 26.0871L122.508 38.5977C127.043 40.0949 131.624 41.4532 136.155 42.9614C131.337 44.7023 126.531 46.476 121.737 48.2831L93.4989 58.5549C85.0771 61.621 76.5035 64.3727 68.1697 67.6712C67.2055 67.5762 65.8941 66.8131 64.9484 66.4653L55.937 63.2368C37.1893 56.6123 18.4847 49.8656 -0.175293 42.9977Z" fill="#232637"/>
<path d="M18.3625 64.3189L18.2993 54.4971C20.9962 55.5855 23.798 56.4515 26.5534 57.3801C29.0125 58.2242 31.4615 59.0971 33.9002 59.9986C40.9157 62.5462 47.948 65.0472 54.9966 67.5016C59.3401 69.0562 63.6569 70.7395 68.0279 72.2099C73.6345 69.9396 79.5124 68.1323 85.2322 66.1511L117.794 54.751C117.858 58.0186 117.837 61.2874 117.729 64.5539C109.29 64.5541 101.14 66.9574 93.7275 70.9021C91.0168 72.3611 88.3646 74.186 85.985 76.1396C77.2 83.2636 71.1741 93.2278 68.9444 104.316C68.435 106.954 68.3201 109.649 68.0546 112.318C67.8966 110.546 67.748 108.778 67.4468 107.023C65.7632 96.9506 61.1716 87.5903 54.2369 80.094C44.5781 69.8466 32.3933 64.7425 18.3625 64.3189Z" fill="#232637"/>
<path d="M18.3433 98.7985L18.3656 78.63C19.1068 78.6251 19.8478 78.6489 20.5871 78.7014C30.1513 79.4668 38.7412 83.6993 44.9525 91.0493C50.9273 98.1196 52.9806 106.694 52.2312 115.777C52.1285 115.876 52.1657 115.874 52.0265 115.883C51.0002 115.954 48.494 115.115 47.4183 114.827C36.4956 111.901 26.7871 106.239 18.3433 98.7985Z" fill="#232637"/>
<path d="M84.0361 115.56C83.9966 115.213 83.962 114.865 83.9324 114.517C83.1613 105.74 85.9884 97.0262 91.7651 90.3736C97.9793 83.1288 106.592 79.3832 115.993 78.6805C116.595 78.6227 117.228 78.65 117.835 78.6435C117.863 85.4724 117.847 92.3012 117.786 99.1298C116.059 100.589 114.191 101.93 112.362 103.258C103.767 109.498 95.8568 113.16 85.4554 115.343L84.0361 115.56Z" fill="#232637"/>
</g>
<defs>
<clipPath id="clip0_111_230">
<rect width="135" height="135" fill="white"/>
</clipPath>
</defs>
</svg>
