<svg width="150" height="150" viewBox="0 0 150 150" fill="none" xmlns="http://www.w3.org/2000/svg">
<g clip-path="url(#clip0_111_211)">
<path d="M74.9119 58.0463C75.2363 56.8017 75.3268 55.4868 75.6368 54.2268C77.0636 48.4264 79.5547 42.7883 83.7274 38.4383C89.5827 32.3346 96.0586 29.9191 104.419 29.7193C105.8 29.6908 107.183 29.7067 108.563 29.7672C108.616 30.7993 108.54 31.8751 108.403 32.8984C107.663 38.4261 104.372 43.2712 99.9676 46.5871C96.0038 49.5717 90.7345 51.3146 85.7553 50.8092C84.0533 50.6365 82.3893 50.1336 80.6925 49.8891C80.6661 47.457 81.1924 45.4085 81.8819 43.0955C78.792 46.5654 77.2679 51.2114 76.9544 55.7919C76.8449 57.3908 76.905 59.0008 76.8941 60.6025L76.8702 69.8113C78.1679 67.0873 80.1204 64.4149 82.208 62.2374C86.9215 57.3216 92.9422 54.0832 99.8671 53.9756C105.887 53.868 111.699 56.1775 116.002 60.3876C112.904 64.7962 109.511 67.876 104.341 69.6532C99.3594 71.3659 93.6729 71.2847 88.6632 69.7088C86.5021 69.0291 84.4785 68.0765 82.445 67.0888C82.6416 65.6678 83.12 64.258 83.5121 62.8815C80.1814 66.1757 77.6082 70.1473 77.0924 74.9005C76.9125 76.5578 76.9955 78.2502 77.0004 79.9148L77.0185 88.049C77.0206 89.2959 77.2599 91.7514 76.838 92.8492C76.6345 93.3788 76.2304 93.807 75.6972 94.0107C75.1972 94.203 74.6386 94.1697 74.1653 93.9189C73.6072 93.6252 73.2387 93.0778 73.0877 92.4737C72.7652 91.1844 72.9633 89.5436 72.9777 88.2034L72.9908 80.8927C72.9936 78.4117 73.2877 75.5605 72.6077 73.165C71.4841 69.2063 68.4582 63.4496 64.7249 61.3785C64.6843 61.3559 64.6435 61.3344 64.6026 61.3123C65.4908 62.8624 66.1847 64.4978 66.776 66.1817C64.5541 67.41 62.5951 68.8899 60.2385 69.9123C56.8476 71.0832 53.573 71.4562 50.0257 70.7858C43.5898 69.5726 37.9049 65.8401 34.2334 60.4171C35.8696 58.6712 37.7792 57.4522 39.884 56.3514C45.066 53.6557 51.1147 53.1594 56.6667 54.9742C62.3023 56.7636 67.1434 60.6865 70.4174 65.5802C71.3642 66.9954 72.126 68.5134 72.9061 70.0238C73.1059 67.2233 73.0503 64.3902 73.0602 61.5839C73.0862 54.181 73.0494 49.1081 68.0328 43.1307C68.9764 45.4601 69.3006 47.4175 69.3986 49.9071C67.0843 50.3351 64.9436 50.9171 62.5565 50.9324C57.1091 50.9672 51.6183 48.6391 47.764 44.8061C43.6807 40.7453 41.5783 35.6198 41.5495 29.8792C50.0337 29.7492 55.6529 29.9924 62.7827 35.3315C70.0992 40.8104 73.6471 49.2306 74.9119 58.0463Z" fill="#232637"/>
<path d="M78.9302 97.7598C80.6816 96.9862 82.3681 96.0729 84.1373 95.3387C92.3008 91.9511 99.5584 90.4631 108.349 89.9771C113.736 89.7285 123.239 91.1145 128.259 93.0431C127.139 95.2418 125.995 97.4423 124.552 99.4504C123.385 101.074 122.065 102.473 120.662 103.888C114.344 110.26 106.873 113.948 98.4612 116.741C97.6059 116.989 96.7338 117.151 95.8607 117.323C95.7937 117.053 95.7241 116.784 95.6517 116.516C93.3868 108.191 86.1627 101.883 78.9302 97.7598Z" fill="#232637"/>
<path d="M21.6108 93.064C27.3951 91.2582 33.1069 90.3366 39.1546 90.088C50.1092 89.7668 61.3417 92.8997 71.061 97.855C70.6193 98.081 70.1795 98.3105 69.7414 98.5432C64.3203 101.432 58.3506 107.277 55.5903 112.701C54.8149 114.224 54.344 115.835 53.8477 117.463C53.4427 117.374 53.0397 117.275 52.639 117.167C41.9415 114.288 32.002 108.115 25.3689 99.163C23.94 97.2348 22.8017 95.1409 21.6108 93.064Z" fill="#232637"/>
<path d="M62.7124 119.213C62.7496 118.889 62.7906 118.566 62.8355 118.244C63.8457 111.081 69.3644 104.723 74.9662 100.533C75.4458 100.645 75.9758 101.149 76.3672 101.451C80.8721 104.925 84.8869 110.349 86.5577 115.798C86.9122 116.954 87.08 118.123 87.2392 119.317C83.2304 119.939 79.2212 120.354 75.1611 120.332C71.0726 120.341 66.7057 120.135 62.7124 119.213Z" fill="#232637"/>
</g>
<defs>
<clipPath id="clip0_111_211">
<rect width="150" height="150" fill="white"/>
</clipPath>
</defs>
</svg>
