<svg xmlns="http://www.w3.org/2000/svg" width="112" height="28" fill="none" viewBox="0 0 112 28"><path fill="url(#paint0_linear_136_3919)" d="M22.1346 1.75912C22.1735 1.45934 21.9186 1.2039 21.6194 1.24289L12.5245 2.42844C12.1463 2.47775 11.9891 2.94068 12.2588 3.21099L13.6588 4.11236C13.9672 4.31092 14.0137 4.74422 13.7545 5.00399L8.4397 10.3303C7.16069 11.6121 7.16069 13.6903 8.4397 14.9721C9.71871 16.2539 11.7924 16.2539 13.0714 14.9721L18.3859 9.64603C18.6452 9.38616 19.0777 9.43293 19.2758 9.74223L20.1707 11.1401C20.4404 11.4104 20.9024 11.2528 20.9516 10.8738L22.1346 1.75912Z"/><path fill="url(#paint1_linear_136_3919)" d="M9.83804 25.6458C8.55903 24.364 8.55903 22.2858 9.83804 21.0041L16.0866 14.7419C17.3656 13.4601 19.4393 13.4601 20.7183 14.7419C21.9973 16.0237 21.9973 18.1019 20.7183 19.3837L14.4697 25.6458C13.1907 26.9276 11.117 26.9276 9.83804 25.6458Z"/><path fill="#0c8df8" d="M7.9187 11.0012C7.0143 12.571 7.55101 14.5784 9.11747 15.4847L15.2479 19.0318L15.2585 19.038C16.4575 19.7375 17.049 21.0839 16.8471 22.381C16.7234 23.1754 16.2056 23.8481 15.6593 24.4369L20.5027 19.5807C20.7882 19.3409 21.0374 19.0478 21.2345 18.7057C22.1389 17.1359 21.6022 15.1285 20.0357 14.2221L13.9053 10.6751L13.8947 10.6689C12.6957 9.96934 12.1042 8.62298 12.3061 7.32583C12.4298 6.53144 12.9476 5.85877 13.4939 5.26999L8.65055 10.1262C8.36502 10.366 8.11577 10.6591 7.9187 11.0012Z"/><path fill="#232637" d="M34.547 21.608C33.618 21.608 32.688 21.501 31.759 21.289 30.83 21.076 30.024 20.764 29.342 20.354 28.935 20.126 28.681 19.822 28.579 19.442 28.478 19.046 28.5 18.666 28.645 18.302 28.79 17.937 29.022 17.678 29.342 17.526 29.661 17.374 30.046 17.412 30.496 17.64 31.077 17.99 31.723 18.248 32.434 18.416 33.146 18.583 33.85 18.666 34.547 18.666 35.592 18.666 36.34 18.499 36.79 18.165 37.255 17.815 37.487 17.382 37.487 16.865 37.487 16.424 37.327 16.075 37.008 15.816 36.689 15.558 36.13 15.337 35.331 15.155L32.87 14.608C30.126 14 28.754 12.51 28.754 10.139 28.754 9.12 29.015 8.231 29.538 7.471 30.06 6.696 30.786 6.095 31.716 5.67 32.659 5.244 33.748 5.031 34.983 5.031 35.796 5.031 36.594 5.138 37.378 5.35 38.162 5.548 38.852 5.844 39.447 6.24 39.81 6.468 40.035 6.764 40.123 7.129 40.21 7.494 40.181 7.843 40.035 8.178 39.905 8.512 39.672 8.748 39.338 8.885 39.019 9.021 38.62 8.968 38.141 8.725 37.661 8.467 37.153 8.277 36.616 8.155 36.079 8.033 35.527 7.973 34.961 7.973 34.046 7.973 33.335 8.163 32.826 8.543 32.333 8.907 32.086 9.386 32.086 9.979 32.086 10.42 32.238 10.777 32.543 11.051 32.848 11.324 33.378 11.545 34.133 11.712L36.594 12.259C39.411 12.898 40.819 14.342 40.819 16.591 40.819 17.595 40.558 18.476 40.035 19.236 39.527 19.981 38.801 20.566 37.857 20.992 36.928 21.403 35.825 21.608 34.547 21.608ZM47.828 21.608C44.822 21.608 43.32 20.08 43.32 17.025V12.738H42.405C41.548 12.738 41.12 12.312 41.12 11.461 41.12 10.595 41.548 10.161 42.405 10.161H43.32V8.429C43.32 7.258 43.871 6.673 44.975 6.673 46.064 6.673 46.608 7.258 46.608 8.429V10.161H48.677C49.519 10.161 49.94 10.595 49.94 11.461 49.94 12.312 49.519 12.738 48.677 12.738H46.608V16.888C46.608 17.526 46.746 18.005 47.022 18.324 47.312 18.644 47.77 18.803 48.394 18.803 48.612 18.803 48.815 18.78 49.004 18.735 49.193 18.689 49.367 18.659 49.527 18.644 49.73 18.628 49.897 18.697 50.028 18.849 50.158 19.001 50.224 19.312 50.224 19.784 50.224 20.164 50.166 20.49 50.049 20.764 49.933 21.023 49.73 21.213 49.44 21.334 49.251 21.41 48.989 21.471 48.655 21.517 48.336 21.577 48.06 21.608 47.828 21.608ZM56.524 21.608C55.377 21.608 54.375 21.372 53.519 20.901 52.677 20.414 52.023 19.738 51.559 18.872 51.094 17.99 50.862 16.949 50.862 15.748 50.862 14.562 51.094 13.536 51.559 12.67 52.023 11.788 52.677 11.112 53.519 10.64 54.375 10.169 55.377 9.933 56.524 9.933 57.671 9.933 58.666 10.169 59.508 10.64 60.365 11.112 61.025 11.788 61.49 12.67 61.969 13.536 62.209 14.562 62.209 15.748 62.209 16.949 61.969 17.99 61.49 18.872 61.025 19.738 60.365 20.414 59.508 20.901 58.666 21.372 57.671 21.608 56.524 21.608ZM56.524 19.031C57.221 19.031 57.788 18.765 58.223 18.233 58.673 17.701 58.898 16.873 58.898 15.748 58.898 14.638 58.673 13.825 58.223 13.308 57.788 12.776 57.221 12.51 56.524 12.51 55.827 12.51 55.261 12.776 54.826 13.308 54.39 13.825 54.172 14.638 54.172 15.748 54.172 16.873 54.39 17.701 54.826 18.233 55.261 18.765 55.827 19.031 56.524 19.031ZM69.197 21.608C68.035 21.608 67.019 21.372 66.148 20.901 65.291 20.414 64.631 19.73 64.166 18.849 63.701 17.967 63.469 16.926 63.469 15.725 63.469 14.524 63.701 13.49 64.166 12.624 64.631 11.758 65.291 11.096 66.148 10.64 67.019 10.169 68.035 9.933 69.197 9.933 69.647 9.933 70.126 9.994 70.634 10.116 71.157 10.222 71.658 10.412 72.137 10.686 72.5 10.868 72.725 11.127 72.812 11.461 72.9 11.78 72.878 12.1 72.747 12.419 72.631 12.738 72.435 12.974 72.159 13.126 71.898 13.262 71.586 13.232 71.223 13.034 70.642 12.715 70.075 12.556 69.524 12.556 68.667 12.556 67.999 12.837 67.52 13.399 67.055 13.947 66.823 14.729 66.823 15.748 66.823 16.751 67.055 17.542 67.52 18.119 67.999 18.682 68.667 18.963 69.524 18.963 69.785 18.963 70.061 18.932 70.351 18.872 70.642 18.796 70.932 18.674 71.223 18.507 71.586 18.309 71.898 18.286 72.159 18.438 72.435 18.59 72.624 18.826 72.725 19.145 72.827 19.449 72.834 19.768 72.747 20.103 72.66 20.437 72.442 20.696 72.094 20.878 71.6 21.137 71.106 21.319 70.613 21.425 70.119 21.547 69.647 21.608 69.197 21.608ZM76.265 21.562C75.162 21.562 74.61 20.977 74.61 19.806V6.832C74.61 5.662 75.162 5.077 76.265 5.077 77.354 5.077 77.899 5.662 77.899 6.832V14.79H77.942L81.1 11.119C81.42 10.739 81.71 10.458 81.972 10.275 82.233 10.078 82.596 9.979 83.06 9.979 83.511 9.979 83.859 10.101 84.106 10.344 84.353 10.572 84.476 10.868 84.476 11.233 84.476 11.583 84.331 11.925 84.041 12.259L81.253 15.52 84.411 19.328C84.687 19.692 84.803 20.05 84.759 20.399 84.73 20.734 84.585 21.015 84.324 21.243 84.062 21.456 83.728 21.562 83.322 21.562 82.814 21.562 82.414 21.463 82.124 21.266 81.848 21.068 81.55 20.764 81.231 20.354L77.942 16.523H77.899V19.806C77.899 20.977 77.354 21.562 76.265 21.562ZM87.757 8.109C87.147 8.109 86.675 7.965 86.341 7.676 86.021 7.372 85.862 6.946 85.862 6.399 85.862 5.837 86.021 5.411 86.341 5.122 86.675 4.818 87.147 4.666 87.757 4.666 89.005 4.666 89.63 5.244 89.63 6.399 89.63 7.539 89.005 8.109 87.757 8.109ZM87.757 21.539C87.219 21.539 86.805 21.38 86.515 21.061 86.239 20.726 86.101 20.262 86.101 19.67V11.872C86.101 10.61 86.653 9.979 87.757 9.979 88.279 9.979 88.679 10.146 88.954 10.481 89.245 10.8 89.39 11.264 89.39 11.872V19.67C89.39 20.262 89.252 20.726 88.976 21.061 88.7 21.38 88.294 21.539 87.757 21.539ZM97.178 21.608C94.172 21.608 92.669 20.08 92.669 17.025V12.738H91.755C90.898 12.738 90.47 12.312 90.47 11.461 90.47 10.595 90.898 10.161 91.755 10.161H92.669V8.429C92.669 7.258 93.221 6.673 94.325 6.673 95.414 6.673 95.958 7.258 95.958 8.429V10.161H98.027C98.869 10.161 99.29 10.595 99.29 11.461 99.29 12.312 98.869 12.738 98.027 12.738H95.958V16.888C95.958 17.526 96.096 18.005 96.372 18.324 96.662 18.644 97.12 18.803 97.744 18.803 97.962 18.803 98.165 18.78 98.354 18.735 98.543 18.689 98.717 18.659 98.877 18.644 99.08 18.628 99.247 18.697 99.378 18.849 99.508 19.001 99.574 19.312 99.574 19.784 99.574 20.164 99.515 20.49 99.399 20.764 99.283 21.023 99.08 21.213 98.789 21.334 98.601 21.41 98.339 21.471 98.005 21.517 97.686 21.577 97.41 21.608 97.178 21.608ZM104.088 25.666C103.508 25.666 103.094 25.438 102.847 24.982 102.615 24.542 102.629 24.025 102.89 23.432L104.045 20.741 100.495 12.214C100.262 11.621 100.262 11.104 100.495 10.663 100.742 10.207 101.228 9.979 101.954 9.979 102.346 9.979 102.658 10.078 102.89 10.275 103.137 10.458 103.362 10.815 103.566 11.347L105.787 17.275 108.096 11.324C108.299 10.808 108.524 10.458 108.771 10.275 109.032 10.078 109.381 9.979 109.816 9.979 110.368 9.979 110.753 10.207 110.971 10.663 111.203 11.104 111.196 11.613 110.949 12.191L105.831 24.344C105.613 24.861 105.366 25.21 105.09 25.393 104.829 25.575 104.495 25.666 104.088 25.666Z"/><defs><linearGradient id="paint0_linear_136_3919" x1="18.9744" x2="-0.900445" y1="5.18642" y2="23.6654" gradientUnits="userSpaceOnUse"><stop stop-color="#0c8df8"/><stop offset="1" stop-color="#033a68"/></linearGradient><linearGradient id="paint1_linear_136_3919" x1="12.3405" x2="23.057" y1="23.2783" y2="12.453" gradientUnits="userSpaceOnUse"><stop stop-color="#0c8df8"/><stop offset="1" stop-color="#033a68"/></linearGradient></defs></svg>