<svg width="38" height="38" viewBox="0 0 38 38" fill="none" xmlns="http://www.w3.org/2000/svg">
<path d="M15.1208 23.9875L28.5396 10.5688C28.8562 10.2521 29.2257 10.0938 29.6479 10.0938C30.0701 10.0938 30.4396 10.2521 30.7562 10.5688C31.0729 10.8854 31.2313 11.2617 31.2313 11.6977C31.2313 12.1336 31.0729 12.5094 30.7562 12.825L16.2292 27.3917C15.9125 27.7083 15.5431 27.8667 15.1208 27.8667C14.6986 27.8667 14.3292 27.7083 14.0125 27.3917L7.20417 20.5833C6.8875 20.2667 6.7355 19.8909 6.74817 19.456C6.76083 19.0211 6.92603 18.6448 7.24375 18.3271C7.56147 18.0094 7.93778 17.851 8.37267 17.8521C8.80756 17.8531 9.18333 18.0115 9.5 18.3271L15.1208 23.9875Z" fill="white"/>
</svg>
