<svg width="300" height="300" viewBox="0 0 300 300" fill="none" xmlns="http://www.w3.org/2000/svg">
<path d="M142.824 72.2856C145.185 68.7768 147.88 65.5427 149.899 61.8047C150.85 62.6238 153.113 66.5845 154.028 67.8844C155.088 69.3902 156.333 70.8038 157.302 72.3645C157.109 86.1026 157.273 99.8587 157.271 113.599L157.221 175.508L151.672 175.54L151.606 109.129L151.619 87.0041C151.62 83.2066 151.839 79.2557 151.524 75.4799C151.389 73.8498 150.762 72.3179 150.161 70.8132L149.988 70.6544L149.749 70.8243C149.077 72.2839 148.512 74.042 148.389 75.6501C148.128 79.0667 148.385 82.6652 148.388 86.1023L148.399 107.749L148.375 175.583C146.536 175.486 144.688 175.517 142.847 175.511L142.824 72.2856Z" fill="currentColor"/>
<path d="M91.3848 101.224C97.9104 93.5582 107.115 87.2582 116.205 83.0491L116.366 83.1252C116.356 83.3069 116.334 83.4493 116.247 83.6119C115.007 85.9096 114.181 88.5548 113.465 91.0665C111.018 99.6622 111.778 109.649 116.213 117.493C121.082 126.102 129.264 132.007 138.723 134.594L138.725 168.499C135.979 166.799 133.139 165.205 130.019 164.303C125.069 162.872 120.664 163.508 116.173 165.982C113.364 167.698 111.015 169.813 109.217 172.574C109.647 166.575 109.987 160.604 109.727 154.587C109.089 139.838 105.175 124.455 98.0161 111.509C96.0389 107.933 93.7174 104.573 91.3848 101.224Z" fill="currentColor"/>
<path d="M160.955 135.018C163.026 134.537 164.996 133.886 166.928 132.992C175.174 129.174 182.459 121.848 185.575 113.222C189.315 102.865 188.049 92.809 183.43 83.0007C192.371 86.2562 201.966 94.186 208.508 100.949C207.017 102.935 205.691 105.115 204.391 107.232C194.446 123.425 189.65 143.631 190.077 162.555C190.151 165.857 190.126 169.56 190.893 172.782C189.046 170.061 186.785 167.973 183.973 166.273C181.702 165.008 179.131 164.081 176.55 163.727C170.567 162.909 165.672 165.155 161.019 168.69L160.955 135.018Z" fill="currentColor"/>
<path d="M186.635 226.988C187.785 225.516 188.872 223.995 189.891 222.429C197.539 210.594 200.601 196.372 198.501 182.438C198.023 179.462 196.943 177.042 196.352 174.247C195.411 169.789 195.313 164.793 195.302 160.253C195.179 144.943 198.607 129.813 205.32 116.052C207.229 112.232 209.41 108.686 211.744 105.118C212.061 105.415 212.325 105.79 212.585 106.138C226.261 124.406 231.975 143.982 228.786 166.718C226.33 184.229 217.325 201.153 204.748 213.489C201.903 216.279 198.771 218.782 195.593 221.178C192.736 223.19 189.762 225.42 186.635 226.988Z" fill="currentColor"/>
<path d="M105.121 221.578C104.599 221.22 104.094 220.836 103.587 220.458C86.0364 207.468 74.3701 188.034 71.1583 166.436C68.7044 149.357 71.877 131.942 80.1967 116.826C82.3919 112.854 84.9741 109.176 87.6855 105.549C88.2829 106.007 88.7227 106.646 89.1636 107.25C101.307 123.885 106.535 150.142 104.261 170.406C103.848 174.088 102.034 177.756 101.416 181.721C99.2906 194.587 101.725 207.791 108.298 219.053C109.863 221.772 111.673 224.309 113.518 226.842C110.595 225.225 107.85 223.504 105.121 221.578Z" fill="currentColor"/>
<path d="M112.92 182.602L112.933 178.737L154.51 178.807C165.392 178.78 176.295 178.606 187.174 178.807C187.187 180.107 187.16 181.408 187.093 182.707C182.491 182.824 177.587 182.109 173.115 183.373C172.945 183.429 172.775 183.488 172.607 183.55C168.703 184.982 165.951 187.571 164.224 191.328C163.193 190.073 162.101 188.946 160.783 187.986C157.226 185.393 154.071 185.208 149.821 185.214C148.25 185.216 146.644 185.154 145.09 185.408C141.368 186.017 137.944 188.503 135.771 191.51C135.163 189.608 134.003 187.8 132.553 186.431C128.835 182.92 124.524 182.589 119.686 182.561C117.431 182.541 115.175 182.554 112.92 182.602Z" fill="currentColor"/>
<path d="M143.662 225.426C143.886 213.224 143.645 201.004 143.78 188.796L156.277 188.796L156.276 225.351C157.887 226.072 159.367 227.181 160.156 228.802C160.781 230.101 160.854 231.597 160.358 232.951C159.498 235.371 157.554 236.618 155.343 237.638C151.889 238.787 148.414 239.003 144.954 237.699C142.822 236.896 140.696 235.363 139.787 233.213C139.228 231.891 139.202 230.438 139.754 229.109C140.486 227.343 141.91 226.105 143.662 225.426Z" fill="currentColor"/>
</svg>
