<svg width="190" height="313" viewBox="0 0 190 313" fill="none" xmlns="http://www.w3.org/2000/svg">
<g clip-path="url(#clip0_136_17569)">
<path d="M1.09743 167.622C1.30196 160.831 1.1103 153.997 1.1379 147.2L1.1701 98.2785L1.07688 81.4865C1.0732 78.6692 0.976918 75.8116 1.14833 73.001C2.30467 73.9317 3.85934 76.3798 4.8179 77.6177C6.61788 79.9414 8.4709 82.2152 10.4904 84.354C21.9232 96.4619 35.5178 106.07 51.3411 111.585C53.9764 112.503 56.7113 113.599 59.4701 114.04C61.781 114.41 64.3059 114.108 66.6376 114.056C74.039 113.89 81.9101 113.845 88.907 116.54C83.6466 121.326 78.7643 126.622 73.7341 131.652C70.9253 134.46 66.9819 137.723 64.7027 140.895C63.9437 141.951 63.5331 143.219 63.3997 144.506C63.1734 146.687 63.7723 148.701 65.1461 150.398C66.518 152.093 68.4608 153.088 70.6334 153.272C72.1546 153.401 73.6256 153.13 74.9828 152.426C78.5665 150.567 83.4878 144.183 87.0454 141.316C91.086 138.059 96.152 137.266 100.944 139.338C105.239 141.196 112.097 149.081 115.582 152.596C123.496 160.577 131.609 168.373 139.591 176.287L147.638 184.283C148.995 185.628 150.342 187.179 151.861 188.333C153.067 189.248 154.428 189.867 155.953 189.992C157.873 190.149 159.951 189.694 161.408 188.39C162.826 187.121 163.738 185.18 163.814 183.283C163.869 181.911 163.513 180.288 162.675 179.176C161.043 177.009 158.888 175.136 156.957 173.229L147.581 163.917L119.448 135.887C114.274 130.744 109.004 125.654 103.969 120.377C108.769 117.399 114.782 115.637 120.376 114.865C122.59 114.559 124.835 114.439 127.057 114.2C131.681 113.702 136.235 112.374 140.599 110.806C157.791 104.626 172.613 93.1345 184.002 79.0106C185.591 77.0351 187.162 75.0462 188.716 73.0438C188.89 88.4312 188.943 103.82 188.875 119.208L188.893 167.609C188.557 167.598 188.221 167.59 187.884 167.584C185.248 167.541 182.604 167.605 179.967 167.597C172.701 167.575 167.887 167.733 162.371 173.072C164.19 174.421 165.778 176.076 166.778 178.124C168.058 180.773 168.244 183.816 167.296 186.6C166.308 189.447 164.213 191.78 161.483 193.072C158.282 194.586 155.246 194.139 152.011 193.011C152.212 193.5 152.394 193.996 152.555 194.499C153.49 197.382 153.393 200.856 151.98 203.572C150.687 206.092 148.443 207.998 145.742 208.873C142.489 209.901 139.455 209.326 136.481 207.799C136.573 207.969 136.663 208.139 136.752 208.31C138.07 210.863 138.369 213.806 137.463 216.544C136.556 219.288 134.469 221.763 131.862 223.042C128.542 224.67 125.183 224.068 121.83 222.91C122.537 224.464 122.904 226.02 122.959 227.725C123.06 230.837 122.003 233.748 119.826 235.998C117.758 238.153 114.912 239.396 111.92 239.45C110.08 239.469 107.908 239.033 106.305 238.116C104.114 236.862 102.439 234.68 100.688 232.903C98.5 230.684 96.2992 228.477 94.085 226.283C92.2936 228.036 90.5289 229.816 88.7914 231.623C86.8302 233.658 84.779 236.102 82.3627 237.601C79.9804 239.078 76.8941 239.492 74.1815 238.845C70.9995 238.065 68.2579 236.059 66.5566 233.268C64.6561 230.115 64.7088 226.663 65.5597 223.197C63.0585 224.098 60.4207 224.12 57.9308 223.164C54.9598 222.024 52.192 219.476 50.9127 216.558C49.5439 213.436 49.9986 210.331 51.1979 207.253C50.818 207.449 50.4347 207.637 50.0385 207.798C47.298 208.91 44.009 208.884 41.291 207.719C38.5149 206.529 36.2584 204.348 35.1781 201.52C33.8696 198.096 34.2888 194.935 35.75 191.659C34.5734 192.099 33.5054 192.498 32.2509 192.661C29.0707 193.074 25.9022 192.415 23.347 190.434C20.9092 188.549 19.3389 185.762 18.9921 182.705C18.0724 175.155 23.3724 172.845 27.382 167.742L27.5274 167.555L1.09743 167.622ZM42.2351 161.14C41.0981 161.293 40.0126 161.557 39.0482 162.211C36.8247 163.721 34.884 166.138 32.9706 168.028C30.2347 170.732 26.8831 173.561 24.5603 176.576C23.228 178.306 22.5175 180.247 22.8297 182.459C23.125 184.549 24.3972 186.381 26.1184 187.575C27.7264 188.69 29.3501 188.855 31.2393 188.754C32.2159 188.515 33.1239 188.258 33.9607 187.67C36.4246 185.937 48.1373 174.293 49.474 172.071C50.4046 170.524 50.5659 168.48 50.1087 166.756C49.5801 164.717 48.2213 162.99 46.36 161.991C45.0639 161.305 43.6852 161.086 42.2351 161.14ZM113.217 163.708C111.04 164.255 109.164 165.332 107.994 167.314C106.947 169.089 106.744 171.173 107.286 173.145C107.578 174.205 108.519 175.242 109.248 176.052C111.158 178.175 113.317 180.131 115.342 182.149L126.309 193.119C128.309 195.113 136.194 203.527 138.026 204.553C139.605 205.437 141.367 205.594 143.133 205.388C145.325 204.84 147.175 203.778 148.343 201.777C149.418 199.933 149.534 197.852 148.964 195.83C148.836 195.379 148.704 195.087 148.421 194.718C146.755 192.537 144.631 190.651 142.693 188.707C139.266 185.248 135.822 181.807 132.359 178.384L123.297 169.234C121.966 167.905 120.643 166.395 119.193 165.202C118.249 164.426 116.881 163.907 115.689 163.727C114.87 163.603 114.039 163.627 113.217 163.708ZM58.4874 175.948C57.5543 176.187 56.6487 176.473 55.8555 177.042C53.9457 178.412 40.1855 192.198 39.1138 193.923C38.1967 195.4 38.2009 197.824 38.6594 199.427C39.2015 201.324 40.486 202.804 42.2023 203.758C43.7082 204.596 45.2849 204.746 46.9666 204.579C48.2155 204.222 49.2845 203.796 50.3218 202.991C52.2322 201.509 65.3892 188.194 66.28 186.536C67.1306 184.953 67.1671 182.584 66.6238 180.932C66.0151 179.081 64.7453 177.533 62.9806 176.681C61.5424 175.987 60.0577 175.838 58.4874 175.948ZM97.73 176.727C95.5357 176.932 93.6066 177.607 92.1298 179.334C90.7751 180.943 90.1489 183.04 90.4001 185.126C90.5138 186.145 90.8101 187.256 91.4353 188.079C92.7977 189.871 94.6023 191.455 96.1965 193.048L104.548 201.379C108.503 205.377 112.502 209.333 116.543 213.244C118.207 214.854 119.813 216.693 121.646 218.103C123.139 219.252 124.852 219.782 126.711 219.94C128.926 219.854 130.814 219.346 132.345 217.629C133.555 216.269 134.171 214.484 134.057 212.67C133.98 211.467 133.646 210.273 132.933 209.294C131.19 206.901 128.797 204.799 126.717 202.697L114.908 190.88L106.565 182.515C105.222 181.164 103.923 179.705 102.471 178.47C101.006 177.224 99.6094 176.831 97.73 176.727ZM75.1122 190.159C74.2012 190.332 73.2877 190.534 72.5008 191.054C71.1771 191.928 69.9999 193.258 68.8625 194.366C66.69 196.479 64.5362 198.611 62.401 200.762C60.172 202.998 56.7064 205.962 54.9739 208.494C53.9503 209.99 53.755 211.96 54.1242 213.707C54.536 215.655 55.7506 217.306 57.4301 218.369C59.0277 219.38 60.7028 219.607 62.5479 219.47C63.7297 219.161 64.7695 218.797 65.7557 218.041C68.115 216.234 70.1768 213.742 72.269 211.632C74.9534 208.926 80.9654 203.499 82.6988 200.58C83.5396 199.164 83.6672 197.109 83.2406 195.544C82.7414 193.714 81.5664 192.004 79.8832 191.083C78.3801 190.261 76.7957 190.07 75.1122 190.159ZM88.9377 206.665C87.9433 206.839 86.8955 207.041 86.059 207.64C84.1517 209.006 82.5007 211.114 80.8286 212.779C77.8116 215.782 72.5806 220.326 70.2967 223.575C69.2784 225.025 68.9702 227.023 69.2713 228.748C69.6236 230.766 70.7732 232.306 72.4591 233.428C74.0423 234.481 75.7604 234.886 77.6389 234.634C78.5453 234.459 79.4061 234.27 80.1659 233.709C82.7472 231.801 85.0538 229.04 87.322 226.767C89.9107 224.174 93.8611 220.792 95.8583 217.816C96.9781 216.146 97.4252 214.355 96.9895 212.358C96.5795 210.477 95.3526 208.689 93.7017 207.685C92.2583 206.807 90.6021 206.538 88.9377 206.665ZM107.727 213.927C106.628 217.365 104.808 220.051 101.514 221.74C100.057 222.487 98.5288 222.854 96.9343 223.184C98.7088 225.231 100.722 227.094 102.638 229.009C104.538 230.908 106.406 233.289 108.736 234.666C110.687 235.424 112.79 235.46 114.728 234.604C116.354 233.887 117.762 232.385 118.395 230.733C119.072 228.964 118.976 226.993 118.13 225.298C116.56 222.148 110.331 216.911 107.727 213.927Z" fill="#232637"/>
<path d="M31.2394 188.754C29.3502 188.855 27.7265 188.69 26.1185 187.575C24.3973 186.381 23.1251 184.549 22.8298 182.459C22.5176 180.247 23.2281 178.306 24.5605 176.576C26.8833 173.561 30.2349 170.732 32.9707 168.028C34.8841 166.138 36.8249 163.721 39.0483 162.211C40.0127 161.557 41.0982 161.293 42.2352 161.14C43.6853 161.086 45.064 161.305 46.3602 161.991C48.2215 162.99 49.5802 164.717 50.1088 166.756C50.566 168.48 50.4048 170.524 49.4741 172.071C48.1375 174.293 36.4247 185.937 33.9608 187.67C33.124 188.258 32.2161 188.515 31.2394 188.754Z" fill="#ECEDF5"/>
<path d="M143.133 205.388C141.367 205.594 139.605 205.436 138.026 204.553C136.194 203.527 128.309 195.113 126.309 193.118L115.342 182.148C113.317 180.131 111.158 178.175 109.248 176.052C108.519 175.242 107.578 174.205 107.286 173.144C106.744 171.173 106.947 169.089 107.995 167.314C109.164 165.332 111.04 164.255 113.218 163.707C114.039 163.626 114.87 163.603 115.689 163.727C116.881 163.907 118.249 164.425 119.193 165.202C120.643 166.394 121.966 167.904 123.297 169.234L132.359 178.384C135.822 181.807 139.266 185.248 142.693 188.707C144.631 190.65 146.755 192.537 148.421 194.718C148.704 195.087 148.836 195.379 148.964 195.83C149.534 197.852 149.418 199.933 148.343 201.776C147.176 203.777 145.325 204.84 143.133 205.388Z" fill="#ECEDF5"/>
<path d="M46.9663 204.579C45.2847 204.745 43.708 204.596 42.2021 203.758C40.4858 202.804 39.2013 201.324 38.6591 199.427C38.2007 197.824 38.1964 195.4 39.1136 193.923C40.1853 192.198 53.9455 178.412 55.8552 177.042C56.6485 176.473 57.554 176.187 58.4871 175.948C60.0574 175.838 61.5422 175.987 62.9803 176.681C64.7451 177.533 66.0149 179.081 66.6235 180.932C67.1669 182.584 67.1304 184.953 66.2798 186.536C65.389 188.194 52.232 201.508 50.3216 202.991C49.2842 203.796 48.2153 204.222 46.9663 204.579Z" fill="#ECEDF5"/>
<path d="M126.711 219.94C124.852 219.782 123.139 219.252 121.646 218.103C119.813 216.693 118.207 214.854 116.543 213.244C112.502 209.332 108.503 205.377 104.548 201.379L96.1965 193.048C94.6023 191.455 92.7977 189.87 91.4353 188.078C90.81 187.255 90.5138 186.144 90.4001 185.126C90.1489 183.04 90.7751 180.943 92.1298 179.334C93.6066 177.607 95.5357 176.931 97.73 176.727C99.6094 176.831 101.006 177.224 102.471 178.47C103.923 179.704 105.222 181.164 106.565 182.514L114.908 190.879L126.717 202.696C128.797 204.799 131.19 206.901 132.933 209.294C133.646 210.273 133.98 211.467 134.057 212.67C134.171 214.484 133.555 216.269 132.345 217.628C130.814 219.346 128.926 219.854 126.711 219.94Z" fill="#ECEDF5"/>
<path d="M62.5477 219.47C60.7026 219.607 59.0275 219.379 57.4299 218.369C55.7504 217.306 54.5358 215.655 54.124 213.707C53.7548 211.96 53.9501 209.989 54.9737 208.494C56.7062 205.962 60.1718 202.998 62.4008 200.762C64.5359 198.611 66.6898 196.479 68.8623 194.366C69.9997 193.258 71.1769 191.928 72.5006 191.054C73.2875 190.534 74.2009 190.332 75.112 190.159C76.7954 190.07 78.3798 190.261 79.883 191.083C81.5661 192.004 82.7412 193.714 83.2404 195.544C83.6669 197.109 83.5394 199.164 82.6986 200.58C80.9651 203.499 74.9531 208.925 72.2688 211.632C70.1766 213.742 68.1147 216.234 65.7555 218.041C64.7693 218.797 63.7295 219.161 62.5477 219.47Z" fill="#ECEDF5"/>
<path d="M77.6389 234.634C75.7604 234.886 74.0423 234.48 72.4591 233.427C70.7732 232.306 69.6236 230.766 69.2713 228.748C68.9701 227.023 69.2783 225.024 70.2967 223.575C72.5805 220.325 77.8115 215.782 80.8286 212.779C82.5007 211.114 84.1516 209.006 86.0589 207.64C86.8954 207.041 87.9432 206.839 88.9377 206.665C90.6021 206.537 92.2583 206.807 93.7016 207.685C95.3526 208.689 96.5794 210.477 96.9894 212.357C97.4252 214.355 96.9781 216.146 95.8582 217.816C93.8611 220.792 89.9106 224.173 87.322 226.767C85.0538 229.04 82.7472 231.801 80.1659 233.709C79.406 234.27 78.5453 234.458 77.6389 234.634Z" fill="#ECEDF5"/>
<path d="M96.9341 223.184C98.5286 222.854 100.057 222.487 101.513 221.739C104.808 220.051 106.628 217.365 107.727 213.927C110.331 216.911 116.559 222.148 118.13 225.298C118.975 226.993 119.072 228.964 118.395 230.732C117.761 232.385 116.353 233.887 114.728 234.604C112.79 235.46 110.687 235.423 108.736 234.666C106.406 233.289 104.538 230.908 102.638 229.009C100.722 227.094 98.7086 225.23 96.9341 223.184Z" fill="#ECEDF5"/>
</g>
<defs>
<clipPath id="clip0_136_17569">
<rect width="190" height="313" fill="white"/>
</clipPath>
</defs>
</svg>
