<svg width="308" height="320" viewBox="0 0 308 320" fill="none" xmlns="http://www.w3.org/2000/svg">
<path d="M156.11 116.749C145.801 117.894 136.512 110.475 135.347 100.168C134.183 89.861 141.583 80.5573 151.888 79.3726C162.221 78.1848 171.556 85.6101 172.724 95.9457C173.892 106.281 166.448 115.602 156.11 116.749Z" fill="#232637"/>
<path d="M228.293 145.719C218.054 146.402 209.204 138.644 208.542 128.404C207.879 118.163 215.655 109.33 225.897 108.688C236.11 108.048 244.912 115.797 245.573 126.008C246.233 136.219 238.502 145.037 228.293 145.719Z" fill="#232637"/>
<path d="M82.6759 145.645C72.4849 146.662 63.404 139.213 62.4084 129.02C61.4128 118.827 68.8806 109.762 79.0759 108.788C89.2406 107.817 98.2731 115.258 99.2659 125.42C100.258 135.583 92.8365 144.631 82.6759 145.645Z" fill="#232637"/>
<path d="M154.276 204.227L153.998 204.335C153.82 204.262 153.697 204.187 153.566 204.045C141.943 191.432 134.119 179.784 134.849 161.845C135.458 146.876 142.937 133.421 153.804 123.385C154.211 123.498 154.461 123.804 154.754 124.09C165.568 134.636 173.399 148.183 173.535 163.608C173.65 176.655 168.392 186.958 160.465 196.954C158.494 199.44 156.499 201.96 154.276 204.227Z" fill="#232637"/>
<path d="M90.8931 154.507C93.7584 153.328 96.3787 151.999 98.8499 150.1C104.97 145.399 108.512 138.602 109.533 131.021C110.625 131.826 111.763 132.6 112.948 133.263C119.12 136.711 124.661 136.134 131.201 134.315C126.413 144.013 122.975 156.551 123.582 167.42C123.811 171.539 124.653 175.514 125.579 179.522C124.008 177.813 122.366 176.218 120.655 174.652C111.883 166.379 101.833 159.577 90.8931 154.507Z" fill="#232637"/>
<path d="M176.457 134.062C177.949 134.694 179.502 135.171 181.091 135.485C187.039 136.642 192.823 134.877 197.738 131.528L197.886 131.586C198.046 131.782 199.318 136.697 199.68 137.596C202.791 145.312 209.482 151.486 217.085 154.728C213.483 156.569 209.787 158.127 206.25 160.126C199.269 164.072 193.131 169.399 187.185 174.728C185.281 176.458 183.563 178.312 181.838 180.215C185.111 169.258 185.067 157.577 181.71 146.645C180.339 142.258 178.48 138.177 176.457 134.062Z" fill="#232637"/>
<path d="M175.559 205.713C175.641 205.57 175.725 205.427 175.811 205.286C191.498 179.812 216.668 161.619 245.777 154.715C245.915 154.68 246.059 154.698 246.2 154.702C246.216 155.062 246.045 155.29 245.859 155.584C244.192 158.209 242.319 160.371 240.677 163.229C238.595 166.92 236.892 170.812 235.596 174.847C232.453 184.953 232.639 191.334 232.634 201.696L232.61 218.992C218.391 213.429 203.595 209.472 188.497 207.195C184.234 206.496 179.875 205.922 175.559 205.713Z" fill="#232637"/>
<path d="M75.3374 219.229C75.2159 212.486 75.3237 205.725 75.3252 198.981C75.3259 195.568 75.413 192.122 75.2068 188.716C74.7024 180.213 72.3368 171.925 68.2774 164.437C66.5349 161.172 64.2609 158.408 62.3049 155.307L62.2012 155.14C63.5471 155.375 64.8952 155.694 66.2199 156.028C89.368 161.867 109.579 175.69 124.579 194.13C127.604 197.849 130.507 201.627 132.967 205.749C129.012 205.874 124.839 206.514 120.916 207.085C111.776 208.335 102.386 210.203 93.5393 212.832C87.3552 214.67 81.354 216.911 75.3374 219.229Z" fill="#232637"/>
<path d="M75.3885 229.598C97.8531 220.262 123.464 216.16 147.706 215.383C150.906 215.253 154.148 215.38 157.35 215.432C177.672 215.76 198.253 218.363 217.739 224.268C222.773 225.794 227.768 227.482 232.539 229.711L232.594 240.345C209.547 231.298 185.082 226.399 160.328 225.873C139.803 225.205 118.062 227.467 98.2222 232.84C90.4803 234.999 82.8532 237.55 75.37 240.482C75.1653 236.907 75.2122 233.175 75.3885 229.598Z" fill="#232637"/>
</svg>
