<svg width="290" height="290" viewBox="0 0 290 290" fill="none" xmlns="http://www.w3.org/2000/svg">
<g clip-path="url(#clip0_136_13345)">
<path d="M164.081 106.275L164.072 72.5362L164.102 63.0449C164.106 61.2967 163.999 59.4963 164.202 57.7592C164.445 57.3245 164.865 57.1494 165.283 56.9138C165.754 56.9427 166.316 57.0107 166.689 57.3304C167.143 57.7207 167.191 58.3958 167.221 58.952C167.379 61.9554 167.218 65.0415 167.206 68.0516L167.213 83.8677L167.292 131.235L175.734 131.22L175.731 134.426C170.262 134.604 164.771 134.528 159.298 134.519L159.296 148.567C153.178 148.781 147.015 148.558 140.891 148.544C140.891 152.77 141.031 156.994 141.007 161.222C135.861 161.111 130.699 161.268 125.549 161.221C125.606 164.828 125.615 168.436 125.577 172.044C143.51 172.026 161.468 171.84 179.398 172.05L179.414 175.472L132.411 175.518C125.413 175.514 118.401 175.411 111.404 175.56L111.503 172.176L117.352 172.113L122.196 172.078L122.237 157.888L136.496 157.89C136.475 143.055 136.612 128.21 136.408 113.377C136.092 113.657 135.768 113.936 135.473 114.238C134.601 115.127 133.938 116.273 133.67 117.495C133.304 119.164 133.5 121.125 133.515 122.832L133.588 130.953L128.007 130.988C128.058 128.463 128.074 125.938 128.056 123.413C128.052 118.211 128.159 114.311 131.936 110.283C134.352 107.707 137.462 106.257 140.999 106.177C143.633 106.117 148.194 105.585 150.147 107.553C151.271 108.686 151.807 110.272 152.078 111.808C152.776 115.757 152.463 120.129 152.473 124.145L152.481 145.423L155.749 145.428L155.756 131.12L164.191 131.165C164.308 124.813 164.086 118.43 164.079 112.074C161.131 112.102 158.182 112.151 155.236 112.021C155.226 110.084 155.227 108.147 155.239 106.21C158.187 106.202 161.134 106.223 164.081 106.275ZM143.751 132.418C143.12 132.882 142.922 133.24 142.816 134.012C142.623 135.419 142.713 136.899 142.715 138.319L142.737 145.429L145.46 145.428L145.992 145.394C146.301 145.007 146.208 135.259 146.076 134.108C146.012 133.547 145.952 133.008 145.462 132.647C144.934 132.258 144.36 132.332 143.751 132.418Z" fill="#232637"/>
<path d="M146.178 59.3861C147.685 57.9225 149.429 57.4351 151.441 57.1066C154.635 56.7058 157.546 57.6951 160.275 59.2654C160.674 65.4214 160.427 71.7153 160.424 77.8872C159.323 77.0948 158.056 76.5077 156.759 76.1211C153.291 75.0869 149.63 75.3398 146.442 77.0681C146.444 78.276 146.455 79.1406 145.652 80.1361C144.259 81.8636 141.612 82.4405 139.513 82.6317C136.227 82.8288 133.363 81.6934 130.703 79.8432L130.704 61.7956C133.29 63.2492 135.811 64.3682 138.833 64.3266C141.5 64.29 144.03 63.2863 145.885 61.3549C146.009 60.7066 146.082 60.0397 146.178 59.3861Z" fill="#232637"/>
<path d="M205.409 97.5043C201.722 98.4496 199.519 100.022 195.417 99.9889C190.804 99.9685 186.394 98.0942 183.179 94.7878C177.494 88.9626 178.528 82.5591 178.6 75.0752C180.86 75.9381 183.042 77.1989 185.138 78.3977C193.737 83.2303 201.454 89.488 207.959 96.9037L205.409 97.5043Z" fill="#232637"/>
<path d="M81.9849 97.0757C83.3788 95.063 85.1284 93.2502 86.8664 91.5317C93.8913 84.5853 102.146 79.4862 111.13 75.4628C111.431 75.4248 111.29 75.3985 111.555 75.5395C111.521 79.9515 112.07 84.9985 110.599 89.2208C109.138 93.3258 106.094 96.675 102.147 98.5195C96.6772 101.095 90.4181 100.188 84.9254 98.2034C83.9319 97.8619 82.9602 97.4659 81.9849 97.0757Z" fill="#232637"/>
<path d="M145.92 102.477C142.088 103.267 138.342 100.801 137.553 96.9694C136.764 93.1376 139.232 89.392 143.064 88.6047C146.894 87.8182 150.636 90.2838 151.425 94.1132C152.213 97.9424 149.749 101.686 145.92 102.477Z" fill="#232637"/>
<path d="M181.703 140.243C181.573 130.854 182.994 123.456 188.945 115.782C194.382 108.77 202.293 103.84 211.157 102.713C211.599 102.673 211.87 102.583 212.272 102.785C212.351 103.027 212.416 103.274 212.467 103.524C212.737 104.878 212.708 106.398 212.692 107.78C212.619 114.191 210.893 120.153 207.242 125.471C201.641 133.633 192.521 138.217 182.999 140.006L181.703 140.243Z" fill="#232637"/>
<path d="M108.594 140.308L108.201 140.261C98.3798 139.064 90.3054 135.071 84.1616 127.152C78.7634 120.245 76.3443 111.47 77.4406 102.773C86.2185 103.672 94.7466 108.304 100.497 114.932C104.705 119.783 107.827 126.653 108.566 133.016C108.85 135.462 108.765 137.861 108.594 140.308Z" fill="#232637"/>
<path d="M63.1704 135.13C64.4522 126.94 67.6957 119.093 71.6186 111.843C71.7787 112.025 72.7634 117.409 73.0366 118.277C75.0301 124.606 78.0343 129.752 82.7041 134.492C79.5854 133.946 76.5818 133.629 73.4096 133.685C69.9211 133.887 66.5918 134.445 63.1704 135.13Z" fill="#232637"/>
<path d="M207.614 134.263C213.914 128.12 216.993 120.699 218.686 112.212C219.455 112.762 219.998 114.394 220.402 115.252C223.417 121.663 225.311 128.097 226.698 135.035C223.393 134.283 220.046 133.86 216.675 133.56C213.638 133.472 210.601 133.707 207.614 134.263Z" fill="#232637"/>
<path d="M142.737 145.429L142.715 138.319C142.713 136.899 142.623 135.419 142.816 134.012C142.922 133.24 143.12 132.882 143.751 132.418C144.361 132.332 144.935 132.258 145.463 132.647C145.952 133.008 146.012 133.547 146.076 134.108C146.208 135.259 146.302 145.007 145.993 145.394L145.46 145.428L142.737 145.429Z" fill="#ECEDF5"/>
<path d="M62.8667 141.842C66.3575 140.618 69.5019 139.909 73.2019 139.681C79.4245 139.469 85.372 140.84 90.7537 144.026C97.9403 148.281 104.057 155.611 106.177 163.774C102.868 165.174 99.674 165.974 96.1193 166.375C89.1264 166.543 83.6099 165.21 77.5785 161.568C70.39 157.228 64.8828 150.03 62.8667 141.842Z" fill="#232637"/>
<path d="M183.423 164.273C184.622 159.471 186.901 155.005 190.086 151.215C195.783 144.428 203.679 140.601 212.458 139.819C216.851 139.303 222.978 140.22 227.081 141.678C225.46 146.637 223.294 151.145 219.901 155.153C214.297 161.772 206.555 165.462 197.993 166.2C193.015 166.501 188.147 165.888 183.423 164.273Z" fill="#232637"/>
<path d="M102.17 222.529C97.8709 219.978 93.0335 216.209 89.2796 212.85C72.5491 197.658 62.5376 176.443 61.4473 153.871C62.3626 154.57 64.2142 157.704 65.1918 158.823C68.9403 163.115 73.4568 165.971 78.2953 168.836C77.4907 169.043 76.6578 169.228 75.8801 169.522C74.849 169.912 73.9362 170.543 73.5001 171.59C72.4647 174.076 74.5652 180.626 75.563 183.075C78.4157 190.078 84.3207 196.306 90.8446 200.093C93.0575 201.378 95.4107 202.339 97.7678 203.319C97.7321 203.333 97.6961 203.346 97.6605 203.36C97.6015 203.385 97.5432 203.411 97.4843 203.435C97.4424 203.453 97.3999 203.468 97.358 203.486C96.5715 203.817 95.991 204.469 95.699 205.266C94.6758 208.06 98.0773 215.077 99.4126 217.822C100.206 219.462 101.18 221.004 102.17 222.529Z" fill="#232637"/>
<path d="M212.336 168.683C216.558 167.072 221.405 162.73 224.313 159.373C225.615 157.87 226.777 156.211 227.965 154.615C227.987 154.648 228.015 154.68 228.032 154.716C228.662 156.06 226.753 166.54 226.353 168.404C222.579 185.971 212.529 203.274 198.684 214.804C195.179 217.723 191.368 220.012 187.55 222.477C188.627 221.236 189.47 219.811 190.343 218.425C193.076 214.108 194.169 208.901 194.58 203.877L192.311 203.229C197.273 201.801 201.888 198.866 205.682 195.418C211.047 190.543 215.15 183.774 216.506 176.604C216.87 174.678 216.94 172.743 217.031 170.791C215.547 169.969 213.892 169.362 212.336 168.683Z" fill="#232637"/>
<path d="M79.3047 174.987C82.271 173.816 85.3921 173.083 88.5697 172.811C95.2615 172.24 102.073 174.321 107.553 178.128C114.384 182.863 119.068 190.105 120.586 198.276C117.576 198.984 114.703 199.466 111.608 199.652C104.749 199.709 98.2059 198.131 92.4844 194.226C85.728 189.615 80.8295 183.099 79.3047 174.987Z" fill="#232637"/>
<path d="M169.128 198.409C170.213 192.968 172.65 187.887 176.215 183.635C181.715 177.153 189.812 173.481 198.206 172.815C202.35 172.414 206.782 173.408 210.681 174.741C209.997 179.106 207.979 183.283 205.299 186.77C199.484 194.336 191.245 198.589 181.89 199.781C177.49 200.106 173.322 199.905 169.128 198.409Z" fill="#232637"/>
<path d="M101.271 207.798C104.176 207.069 107.128 206.706 110.111 206.516C111.114 206.459 112.118 206.441 113.122 206.46C121.677 206.64 129.943 209.962 135.873 216.217C137.593 218.032 141.383 222.874 141.844 225.289C142.215 227.234 141.864 231.554 141.805 233.686C139.139 233.563 136.495 233.439 133.847 233.096C129.04 232.683 124.037 231.383 119.61 229.467C109.705 225.178 105.075 217.345 101.271 207.798Z" fill="#232637"/>
<path d="M148.042 233.598C148.121 231.604 147.986 229.584 148.178 227.597C148.56 223.64 150.809 219.851 153.502 217.011C159.691 210.472 168.248 206.692 177.25 206.523C180.79 206.509 184.488 206.734 187.938 207.563C186.649 212.323 184.578 216.509 181.537 220.405C175.666 227.929 167.66 231.586 158.344 232.753C154.899 233.176 151.51 233.445 148.042 233.598Z" fill="#232637"/>
</g>
<defs>
<clipPath id="clip0_136_13345">
<rect width="290" height="290" fill="white"/>
</clipPath>
</defs>
</svg>
