<svg width="179" height="179" viewBox="0 0 179 179" fill="none" xmlns="http://www.w3.org/2000/svg">
<g clip-path="url(#clip0_142_171)">
<path d="M141.57 160.849C121.588 160.849 101.607 160.849 81.2307 160.544C79.0419 155.617 77.5191 150.863 75.3509 146.423C74.0944 143.85 74.2718 142.803 76.7045 141.134C82.1826 137.376 87.3601 133.168 92.533 128.987C93.4269 128.264 93.6971 126.77 94.6804 124.766C92.9269 125.244 92.4289 125.223 92.2324 125.456C86.3637 132.417 78.6271 136.877 70.8849 141.282C63.2824 145.609 55.2974 148.814 46.2867 148.18C41.7282 147.859 39.4788 144.879 40.3548 140.393C40.6305 138.981 40.986 137.574 41.4464 136.212C42.2333 133.884 42.1737 132.18 39.2289 131.507C36.5235 130.889 35.9605 129.167 36.6478 126.411C37.0001 124.999 36.3909 122.817 35.4023 121.71C33.3113 119.367 33.2052 117.055 35.136 115.065C38.1933 111.914 36.9603 110.534 33.6948 108.765C27.3821 105.345 26.3741 100.735 30.39 94.8182C32.9604 91.031 35.6999 87.3501 38.5186 83.7427C40.8995 80.6957 41.7752 77.9204 39.6169 74.1205C35.9567 67.6763 35.7447 60.3998 37.35 53.4412C40.661 39.0887 51.4327 31.3149 63.8265 25.3092C67.8785 23.3457 72.2181 20.9643 76.5526 19.7821C80.7646 18.633 93.3496 18.7384 107.682 20.1762C109.652 20.5702 110.553 21.2105 111.526 21.4609C121.153 23.9378 130.069 27.8801 137.88 34.1231C149.213 43.1816 154.532 54.8779 151.055 69.1302C148.842 78.2043 145.629 87.2816 141.309 95.5448C131.526 114.26 130.911 133.024 138.386 152.417C139.466 155.22 140.509 158.038 141.57 160.849ZM132.078 101.995C132.626 99.1906 133.145 96.3805 133.735 93.5853C133.973 92.4585 134.227 91.3007 134.709 90.2659C137.012 85.3133 139.51 80.4486 141.718 75.4554C143.98 70.3425 143.504 65.3229 140.997 60.296C139.989 58.2744 139.056 55.6819 139.434 53.5921C141.377 42.8361 132.207 30.366 117.055 34.7015C112.82 35.9133 109.477 34.8327 106.481 31.6678C99.8826 24.6968 87.8558 22.5027 79.1715 26.2787C75.6182 27.8237 71.8988 29.0796 68.1483 30.0583C60.9757 31.9303 54.6097 39.505 55.2108 46.8134C55.4703 49.9686 54.5006 51.8624 52.6614 54.102C43.6422 65.0851 48.6013 78.9577 62.4575 82.2513C64.4713 82.73 66.5169 84.0082 68.0344 85.455C71.6272 88.8801 75.638 91.5423 80.6414 90.5665C87.9771 89.1359 95.1716 87.9686 102.436 90.6657C102.901 90.8384 103.479 90.6904 104.002 90.7276C111.133 91.2346 116.98 96.7545 117.884 103.821C118.017 104.859 117.817 106.16 118.37 106.878C119.565 108.432 121.019 110.593 122.608 110.821C124.36 111.072 126.77 109.847 128.186 108.514C129.831 106.965 130.707 104.6 132.078 101.995Z" fill="currentColor"/>
<path d="M137.852 60.6941C140.726 65.9224 140.71 70.9932 138.274 76.0291C136.017 80.6941 133.48 85.2261 131.313 89.9302C130.638 91.3952 130.973 93.2939 130.484 94.8828C129.348 98.577 128.168 102.282 126.61 105.807C126.178 106.784 124.237 107.79 123.21 107.597C122.337 107.433 121.574 105.642 121.129 104.436C119.961 101.268 119.49 97.7235 117.78 94.9146C116.496 92.8051 113.72 91.6034 111.4 89.8389C113.511 88.2447 115.584 86.9096 117.364 85.2588C118.687 84.0316 119.931 82.535 120.686 80.9143C122.774 76.4358 123.027 70.8232 129.71 69.3398C129.311 68.8059 128.912 68.2721 128.513 67.7383C125.099 68.5249 121.651 70.0474 118.279 69.8959C114.75 69.7374 111.293 67.9702 107.147 66.7056C108.287 70.939 111.611 71.4037 114.149 72.3395C120.273 74.5973 120.372 76.0946 116.532 81.637C110.297 90.6365 92.7996 89.6009 88.4623 78.2239C87.4056 75.452 87.003 73.3314 90.9853 73.1861C91.6125 73.1632 92.3504 72.9369 92.8162 72.5432C93.4103 72.0412 93.7796 71.2732 94.2458 70.6199C93.5811 70.3344 92.9165 69.8114 92.2517 69.811C90.6885 69.8102 88.9987 70.5115 87.5872 70.1167C84.1741 69.1623 80.8753 67.7831 77.5641 66.4892C76.4926 66.0706 75.5256 65.3846 74.5109 64.8209C74.1437 65.2717 73.7766 65.7224 73.4094 66.1732C75.1589 67.7873 76.6751 69.846 78.711 70.9147C82.016 72.6495 84.7328 74.4717 85.2257 78.5416C85.3595 79.6469 86.1393 80.7082 86.7449 81.7162C88.8858 85.2793 88.3515 86.5449 84.2459 87.4534C76.4389 89.1809 70.6142 86.1179 67.546 78.6672C67.4464 78.4254 67.4514 78.1178 67.3009 77.9238C66.621 77.0474 65.9027 76.2008 65.1982 75.3435C64.6021 76.2993 64.006 77.2551 63.2321 78.4961C56.5116 79.3012 49.3742 70.5866 51.3517 63.2184C51.7558 61.7129 52.2951 60.1524 53.1655 58.888C54.115 57.5086 55.5219 56.4441 56.7294 55.2424C57.9045 56.7353 59.3095 58.1068 60.1823 59.7593C60.8891 61.0974 60.8367 62.817 61.3679 64.2775C61.5647 64.8185 62.4654 65.1035 63.0451 65.5053C63.3756 64.9942 64.0787 64.3927 63.98 63.9857C62.7545 58.9316 64.3628 54.9877 68.413 51.8836C68.6511 51.7011 68.6765 51.1663 68.6885 50.7918C68.6956 50.5688 68.4829 50.3389 68.0063 49.3893C66.4338 50.4907 64.8171 51.4094 63.4626 52.6211C61.3524 54.509 60.2224 54.2045 59.2982 51.4954C57.3694 45.841 58.7413 40.0882 63.1882 36.1636C67.6349 32.2393 73.3846 31.655 78.8563 34.595C79.6619 35.0279 80.3639 35.7406 81.2109 35.9792C81.8033 36.1461 82.8913 35.9318 83.1536 35.511C83.4234 35.0781 83.1898 33.9546 82.7724 33.5437C81.6984 32.4865 80.4008 31.6563 79.134 30.6907C84.8126 25.4875 98.2965 27.1892 103.303 33.6455C101.243 34.708 99.2131 35.7097 97.2315 36.7991C96.4357 37.2366 95.5591 37.7284 95.0383 38.4318C91.9363 42.621 88.6112 46.2215 82.6393 45.4884C81.935 45.4019 81.0513 46.7765 80.2507 47.4738C81.2412 47.7502 82.2589 48.3362 83.2175 48.2517C88.6261 47.7748 93.7525 48.0156 97.6513 52.5622C97.9655 52.9286 98.5215 53.1513 99.0079 53.2842C99.3429 53.3758 99.7518 53.1968 100.415 53.0944C100.717 48.3714 95.5175 48.1562 93.857 45.0498C95.7836 39.8384 100.051 37.8648 105.078 37.2233C110.57 36.5222 114.708 39.024 117.846 43.3746C118.38 44.1142 118.622 45.101 119.244 45.7293C119.801 46.2902 120.698 46.5133 121.444 46.8854C121.555 45.9757 122.03 44.902 121.708 44.1873C120.78 42.1256 119.53 40.2087 118.371 38.172C129.562 33.9729 137.813 43.4987 136.203 52.8505C134.509 52.3524 132.849 51.864 131.189 51.3755C130.882 51.6693 130.574 51.9631 130.267 52.2569C132.738 54.9894 135.208 57.7219 137.852 60.6941Z" fill="currentColor"/>
</g>
<defs>
<clipPath id="clip0_142_171">
<rect width="179" height="179" fill="white"/>
</clipPath>
</defs>
</svg>
