<svg width="298" height="298" viewBox="0 0 298 298" fill="none" xmlns="http://www.w3.org/2000/svg">
<g clip-path="url(#clip0_136_4891)">
<path d="M108.993 75.5679C110.234 74.6064 111.607 73.779 112.921 72.9191C116.11 70.8319 119.044 68.8722 122.894 68.2876C129.709 67.5245 135.311 73.0439 140.631 76.5463C135.839 77.0489 131.078 77.8983 126.281 78.4152C123.38 78.9163 120.377 79.2079 117.449 79.5181C114.622 78.2589 111.73 77.0096 108.993 75.5679Z" fill="#232637"/>
<path d="M118.723 91.94C126.299 87.6161 133.504 82.5912 141.256 78.5693C141.529 79.1115 141.287 91.8286 141.282 93.6829C133.464 94.5659 125.696 95.7753 117.89 96.7328C115.595 95.0341 112.941 93.6768 110.483 92.222C105.842 89.5016 101.224 86.7419 96.63 83.9432L96.6262 83.7951C97.1276 82.8889 102.643 79.553 103.834 78.8385C106.022 80.6094 108.04 82.5772 110.133 84.4577C112.962 86.9907 115.826 89.485 118.723 91.94Z" fill="#232637"/>
<path d="M75.7099 226.333C75.2644 222.423 75.629 216.795 75.6247 212.705C75.547 202.984 75.5397 193.262 75.6031 183.541L75.574 139.892L75.5665 125.179C75.5761 120.034 75.4748 114.865 76.434 109.787C77.8096 102.504 81.5989 94.982 87.3063 90.1232C89.752 88.041 92.6037 86.3252 95.2525 84.5125C95.9789 84.6486 99.4114 88.825 100.132 89.6137C103.779 93.607 107.63 97.4149 111.429 101.262C113.832 103.694 116.199 106.359 118.834 108.534C123.027 106.083 140.591 94.2516 143.808 94.1142C145.016 94.0627 146.455 94.3636 147.366 95.2084C148.381 96.1519 149.018 97.4071 149.063 98.8019C149.136 101.085 147.774 103.263 146.284 104.889C144.432 106.911 142.167 108.526 139.84 109.954C137.867 111.166 135.819 112.338 133.587 113C129.416 114.239 122.388 113.513 117.797 113.713C109.082 108.818 101.274 102.342 92.5167 97.4996C94.9563 100.013 97.2643 102.642 99.6905 105.166C103.054 108.666 106.524 112.066 109.806 115.643C106.928 116.757 104.509 118.677 103.249 121.555C98.9077 131.471 105.169 149.085 108.842 158.694C109.844 161.201 110.919 163.636 112.145 166.044C113.071 167.862 114.129 169.634 114.945 171.504C110.627 173.593 106.531 176.114 102.721 179.03C90.6859 188.267 81.4429 201.587 77.5235 216.295C76.6426 219.6 76.1549 222.947 75.7099 226.333Z" fill="#232637"/>
<path d="M84.4036 229.393C85.2178 225.907 86.5254 222.474 87.8861 219.168C91.7884 209.69 96.8244 200.744 103.337 192.8C108.776 186.165 115.258 179.924 122.359 175.083C129.039 170.528 138.2 166.474 146.258 165.512C151.832 164.847 157.572 165.778 163.159 165.188C167.212 164.761 171.464 162.748 173.344 158.947C174.301 157.011 174.77 154.815 175.707 152.834C177.375 149.304 179.525 146.14 181.997 143.13C189.522 133.966 201.316 128.364 212.791 126.025C215.542 125.465 218.314 125.174 221.105 124.904L222.599 124.791C222.745 132.527 222.547 140.285 222.616 148.025C216.656 148.379 210.518 147.562 204.587 148.307C200.877 148.773 197.347 149.836 193.885 151.211C186.847 154.006 180.816 158.333 175.609 163.808C173.723 165.79 172.003 167.924 170.081 169.873C166.141 173.87 161.739 177.621 157.098 180.782C153.224 183.365 149.188 185.697 145.015 187.763C139.243 190.594 133.123 192.963 128.128 197.104C118.86 204.787 113.214 217.539 112.148 229.386C103.577 229.525 94.9872 229.412 86.4142 229.365L84.4036 229.393Z" fill="#232637"/>
<path d="M118.546 229.425C119.046 227.917 119.881 226.464 120.628 225.064C123.603 219.49 127.16 214.402 131.244 209.582C136.507 203.371 143.257 197.445 150.525 193.688C152.129 192.859 153.824 192.202 155.457 191.434C157.991 190.224 160.411 188.788 162.686 187.143C167.494 183.646 172.025 179.782 176.238 175.587C178.98 172.857 181.546 169.933 184.405 167.324C191.673 160.691 201.787 156.157 211.352 154.108C214.456 153.444 217.599 153.115 220.76 152.856C221.36 152.796 221.975 152.787 222.579 152.754C222.599 156.96 222.709 161.192 222.338 165.386C222.026 168.924 221.35 172.335 220.604 175.805C214.726 176.04 208.815 175.57 202.98 176.487C191.315 178.321 181.023 184.96 173.33 193.756C170.911 196.524 168.782 199.694 166.54 202.616C163.231 206.926 159.857 211.167 156.494 215.434C154.121 218.446 151.785 221.756 149.066 224.461C143.849 229.647 138.309 229.452 131.459 229.446L120.554 229.429L118.546 229.425Z" fill="#232637"/>
<path d="M157.039 229.275C156.731 229.302 156.68 229.339 156.386 229.207C156.396 228.877 156.528 228.67 156.717 228.409C157.793 226.921 159.133 225.511 160.29 224.068L167.342 215.143C170.834 210.772 174.122 206.212 177.696 201.911C188.225 189.238 202.332 182.424 218.645 180.933C218.789 180.905 218.966 180.934 219.114 180.941C219.187 181.854 218.494 182.997 218.191 183.855C215.674 191.05 211.882 197.733 206.996 203.584C194.398 218.818 176.593 227.445 157.039 229.275Z" fill="#232637"/>
</g>
<defs>
<clipPath id="clip0_136_4891">
<rect width="298" height="298" fill="white"/>
</clipPath>
</defs>
</svg>
