<svg width="308" height="412" viewBox="0 0 308 412" fill="none" xmlns="http://www.w3.org/2000/svg">
<g clip-path="url(#clip0_136_7722)">
<path d="M153.834 173.673C154.445 171.337 154.615 168.868 155.198 166.503C157.883 155.614 162.571 145.03 170.423 136.864C181.442 125.405 193.628 120.871 209.361 120.496C211.961 120.442 214.562 120.472 217.16 120.586C217.259 122.523 217.116 124.543 216.858 126.464C215.466 136.841 209.272 145.936 200.985 152.161C193.525 157.764 183.609 161.036 174.239 160.087C171.037 159.763 167.905 158.819 164.712 158.36C164.663 153.794 165.653 149.949 166.95 145.607C161.136 152.121 158.268 160.842 157.678 169.441C157.472 172.443 157.585 175.465 157.564 178.472L157.519 195.759C159.961 190.646 163.636 185.629 167.564 181.541C176.434 172.313 187.764 166.234 200.795 166.031C212.123 165.829 223.06 170.165 231.159 178.069C225.329 186.345 218.943 192.126 209.215 195.463C199.84 198.678 189.139 198.525 179.712 195.567C175.645 194.291 171.837 192.503 168.01 190.649C168.38 187.981 169.28 185.334 170.018 182.75C163.75 188.934 158.908 196.39 157.937 205.313C157.599 208.424 157.755 211.601 157.764 214.726L157.798 229.996C157.802 232.337 158.253 236.947 157.459 239.008C157.076 240.002 156.315 240.806 155.312 241.188C154.371 241.549 153.32 241.487 152.429 241.016C151.379 240.465 150.686 239.437 150.401 238.303C149.795 235.882 150.167 232.802 150.194 230.286L150.219 216.562C150.224 211.905 150.778 206.552 149.498 202.055C147.384 194.624 141.69 183.817 134.664 179.929C134.588 179.886 134.511 179.846 134.434 179.804C136.105 182.714 137.411 185.784 138.524 188.946C134.343 191.251 130.656 194.03 126.222 195.949C119.841 198.147 113.678 198.847 107.003 197.589C94.8918 195.311 84.1937 188.304 77.2847 178.124C80.3638 174.846 83.9572 172.558 87.9181 170.491C97.6697 165.431 109.052 164.499 119.5 167.906C130.105 171.265 139.215 178.63 145.376 187.816C147.158 190.473 148.592 193.323 150.06 196.158C150.436 190.901 150.331 185.582 150.35 180.314C150.399 166.417 150.329 156.894 140.889 145.673C142.665 150.045 143.275 153.72 143.459 158.394C139.104 159.197 135.076 160.29 130.584 160.318C120.333 160.384 110 156.013 102.747 148.818C95.0628 141.195 91.1064 131.573 91.0522 120.796C107.018 120.552 117.592 121.008 131.009 131.031C144.778 141.317 151.454 157.124 153.834 173.673Z" fill="#232637"/>
<path d="M161.396 248.226C164.692 246.774 167.865 245.059 171.195 243.681C186.557 237.322 200.214 234.528 216.757 233.616C226.894 233.149 244.776 235.751 254.224 239.372C252.117 243.499 249.963 247.63 247.247 251.4C245.052 254.448 242.568 257.075 239.928 259.73C228.037 271.693 213.979 278.616 198.15 283.858C196.54 284.324 194.899 284.629 193.256 284.951C193.13 284.445 192.999 283.94 192.863 283.436C188.6 267.808 175.006 255.967 161.396 248.226Z" fill="#232637"/>
<path d="M53.5315 239.411C64.4164 236.021 75.165 234.291 86.5456 233.824C107.16 233.221 128.298 239.103 146.588 248.405C145.756 248.829 144.929 249.26 144.105 249.697C133.903 255.12 122.669 266.094 117.475 276.275C116.016 279.135 115.129 282.159 114.195 285.215C113.433 285.047 112.675 284.861 111.921 284.658C91.7901 279.254 73.0857 267.666 60.6035 250.861C57.9145 247.241 55.7725 243.31 53.5315 239.411Z" fill="#232637"/>
<path d="M130.877 288.499C130.947 287.892 131.024 287.286 131.109 286.681C133.01 273.233 143.395 261.298 153.936 253.433C154.839 253.643 155.836 254.588 156.573 255.155C165.05 261.678 172.605 271.86 175.749 282.088C176.417 284.258 176.732 286.453 177.032 288.695C169.488 289.862 161.944 290.643 154.303 290.6C146.609 290.617 138.392 290.23 130.877 288.499Z" fill="#232637"/>
</g>
<defs>
<clipPath id="clip0_136_7722">
<rect width="414" height="413" fill="white" transform="translate(-53 -1)"/>
</clipPath>
</defs>
</svg>
