<svg width="308" height="340" viewBox="0 0 308 340" fill="none" xmlns="http://www.w3.org/2000/svg">
<path d="M132.255 85.2294C132.255 88.8041 131.413 96.1184 133.79 98.8128C134.642 99.7936 135.857 100.386 137.154 100.452C138.475 100.508 139.682 99.8975 140.632 99.0097C141.451 98.2447 142.003 97.2396 142.282 96.1592C142.992 93.4216 142.45 88.1191 142.553 85.0418C150.165 84.8698 157.829 84.989 165.444 85.0667C165.43 87.9491 165.057 93.2666 165.613 95.8773C165.827 96.8797 166.24 97.8227 166.911 98.6053C167.826 99.6718 169.183 100.377 170.596 100.425C171.905 100.469 173.082 99.771 174.001 98.8819C174.722 98.1849 175.197 97.3054 175.458 96.3415C176.135 93.8327 175.72 87.9839 175.704 85.1643C184.355 85.0269 193.007 85.0448 201.657 85.2184L201.642 110.018C197.456 109.803 193.193 109.958 188.998 109.954L165.679 109.932L106.365 109.93L106.347 85.1726C114.983 85.088 123.619 85.1069 132.255 85.2294Z" fill="#232637"/>
<path d="M115.747 119.534C124.931 119.375 134.133 119.461 143.319 119.448L149.169 119.448C149.259 127.134 149.783 134.633 146.413 141.781C142.426 150.236 136.665 153.804 128.153 156.844C127.955 154.866 127.709 152.892 127.416 150.925C125.946 139.715 121.957 128.983 115.747 119.534Z" fill="#232637"/>
<path d="M179.583 157.11C175.077 155.8 170.714 153.036 167.407 149.736C158.253 140.598 158.803 131.401 158.83 119.505L192.112 119.53C186.84 128.014 183.391 136.654 181.209 146.39C180.402 149.925 179.952 153.509 179.583 157.11Z" fill="#232637"/>
<path d="M126.86 180.522C128.488 172.775 128.454 165.299 128.209 157.432C129.992 158.425 131.988 159.137 133.828 160.039C140.014 163.071 146.275 165.936 152.469 168.946C149.414 170.134 146.455 171.474 143.507 172.905C138.044 175.446 132.562 178.602 126.86 180.522Z" fill="#232637"/>
<path d="M155.543 168.837C158.321 166.844 165.006 164.131 168.409 162.61C172.079 160.971 175.691 159.205 179.36 157.56L179.545 157.798C179.488 163.745 179.457 168.24 180.105 174.253C180.22 175.316 180.997 179.232 180.645 180.037C178.452 180.496 167.254 174.687 164.562 173.37C161.527 171.928 158.475 170.48 155.543 168.837Z" fill="#232637"/>
<path d="M190.144 235.491C183.77 235.54 178.911 235.305 173.107 232.299C166.57 228.913 162.146 223.436 159.986 216.428C157.874 209.575 158.674 201.459 162.044 195.134C166.059 187.603 172.725 182.922 180.77 180.501C180.867 180.549 180.977 180.68 181.018 180.772C181.516 181.862 181.686 183.479 181.996 184.661C182.758 187.574 183.562 190.507 184.593 193.337C189.106 205.749 195.804 217.253 204.37 227.305C206.826 230.18 209.485 232.824 212.085 235.561C204.772 235.453 197.458 235.429 190.144 235.491Z" fill="#232637"/>
<path d="M95.9656 235.457C111.698 219.401 122.215 202.908 126.95 180.703C131.855 181.594 137.66 184.906 141.173 188.435C146.572 193.859 149.354 200.965 149.27 208.588C149.191 215.777 146.155 223.208 140.973 228.239C136.661 232.418 131.032 234.969 125.047 235.455C123.035 235.622 120.978 235.518 118.961 235.481C111.296 235.42 103.631 235.412 95.9656 235.457Z" fill="#232637"/>
<path d="M89.6643 254.78C92.1193 251.612 94.1593 248.12 96.6469 244.952L159.87 244.893C177.286 245.031 194.702 245.032 212.118 244.897C214.043 248.337 216.22 251.593 218.392 254.879C216.256 254.907 214.117 254.891 211.981 254.894L131.398 254.829C117.505 254.836 103.553 255.081 89.6643 254.78Z" fill="#232637"/>
</svg>
