<svg width="280" height="279" viewBox="0 0 280 279" fill="none" xmlns="http://www.w3.org/2000/svg">
<path d="M54.8707 135.033C63.908 134.006 71.4653 132.353 79.8639 128.706C103.089 118.619 122.974 97.8149 131.368 73.9407C132.786 69.9067 133.813 65.9841 134.573 61.7764C134.798 60.5321 135.238 56.2046 135.555 55.4009C135.984 55.0802 136.266 55.1289 136.793 55.0875C139.317 54.9121 141.852 54.9434 144.372 55.181C145.785 65.9339 147.839 73.9516 152.661 83.7235C154.062 86.5636 155.513 89.3808 157.269 92.0226C159.597 95.5246 162.274 98.7366 164.881 102.029C163.2 103.116 161.635 104.374 159.916 105.402C158.544 104.017 157.351 102.416 156.158 100.879C150.852 94.0421 146.802 86.6102 143.008 78.8775C142.59 91.7297 143.266 104.626 142.875 117.485C140.991 118.824 139.059 120.106 137.152 121.414L137.123 98.6181C137.127 92.0757 137.171 85.492 136.898 78.9546C135.768 80.8119 134.878 82.8731 133.879 84.8076C132.286 87.8515 130.58 90.8352 128.764 93.7525C120.027 107.589 106.912 120.568 92.8916 129.081C88.3629 131.831 83.6333 133.972 78.8968 136.309L160.125 136.312L185.973 136.264C190.881 136.26 195.911 136.521 200.797 136.08C190.441 131.534 178.164 124.192 170.16 116.256C171.77 115.089 173.371 113.909 175.035 112.82C181.838 118.47 188.787 123.315 196.812 127.097C205.752 131.361 215.367 134.048 225.228 135.039C225.546 138.004 225.523 140.996 225.162 143.957C213.267 145.599 204.807 147.851 194.103 153.318C189.748 155.542 185.62 158.013 181.725 160.979C161.33 176.512 147.607 198.44 144.173 223.937C141.3 224.324 138.254 224.112 135.369 223.955C133.621 206.761 126.651 190.508 115.39 177.364C103.761 163.702 90.2991 153.715 73.2005 147.929C67.2762 145.925 61.1693 144.44 54.9212 143.92C54.6615 140.918 54.6787 138.036 54.8707 135.033ZM188.942 142.565L110.324 142.612L91.59 142.589C87.2845 142.572 82.9653 142.495 78.6624 142.652C82.0591 144.351 85.5525 145.813 88.8619 147.689C105.771 157.081 119.921 170.714 129.909 187.237C132.17 191.053 134.095 195.045 135.953 199.066L136.914 201.188C137.671 186.688 136.977 172.108 137.256 157.596C139.114 157.585 140.971 157.59 142.829 157.61L143.006 200.888C144.607 197.381 146.108 193.757 148.022 190.404C157.733 173.22 171.823 158.894 188.869 148.872C192.917 146.497 196.97 144.291 201.374 142.626C197.23 142.564 193.086 142.544 188.942 142.565Z" fill="currentColor"/>
<path d="M174.974 94.8367L174.795 94.6765C172.992 93.049 171.474 91.0642 170.031 89.1188C164.222 81.2899 160.137 72.3273 158.042 62.8173C157.59 60.8286 157.088 58.7544 157.005 56.7134C158.548 56.9139 160.086 57.3204 161.597 57.6858C172.864 60.4118 186.402 67.0841 195 74.9002C194.557 77.2414 193.921 79.6538 193.241 81.9373C191.051 83.4355 188.873 84.9493 186.705 86.4787C182.773 89.2403 178.961 92.1467 174.974 94.8367Z" fill="currentColor"/>
<path d="M56.9058 122.982L56.5788 122.965C56.5651 122.923 56.5462 122.881 56.5378 122.837C56.3825 122.048 56.882 120.655 57.0808 119.847C59.0641 111.786 62.5556 103.814 66.8152 96.6968C76.0538 81.2611 90.6507 68.3412 107.357 61.4774C112.284 59.453 117.289 58.1239 122.441 56.8235L122.713 56.8665C122.726 56.9085 122.744 56.9494 122.754 56.9927C122.974 58.0147 122.352 60.3162 122.128 61.442C120.195 71.1675 116.287 80.7704 110.535 88.8872C100.207 103.459 86.1945 114.731 68.9991 120.168C65.0258 121.425 61.0096 122.276 56.9058 122.982Z" fill="currentColor"/>
<path d="M211.871 65.9546C215.092 63.5907 218.376 61.3113 221.717 59.1194C222.027 59.6885 219.862 67.2583 219.542 68.4708C223.963 65.3462 228.675 61.756 233.288 58.9951C234.058 60.0201 234.669 61.2312 235.324 62.3358C230.93 65.2797 226.655 68.4525 222.309 71.4727C227.78 71.1589 233.27 71.2529 238.749 71.2485C235.149 73.8121 231.603 76.4909 228.06 79.1311C224.873 79.1395 221.687 79.1183 218.501 79.0668C216.577 79.0469 214.621 78.9621 212.704 79.1289C211.818 79.7466 210.868 80.3389 210.077 81.0732C215.194 81.2037 220.313 81.22 225.431 81.1219C224.072 82.2992 222.43 83.2758 220.954 84.3095C218.831 85.8096 216.739 87.3531 214.678 88.9389C209.73 89.0718 204.779 88.8808 199.83 89.0222C194.292 92.7579 188.897 96.7389 183.46 100.62L169.845 110.192C164.224 114.294 158.569 118.348 152.879 122.354C150.904 123.749 147.954 126.156 145.881 127.182C145.253 127.493 144.555 127.688 143.852 127.557C143.346 127.463 142.888 127.194 142.601 126.762C142.248 126.231 142.168 125.537 142.299 124.922C142.467 124.128 142.964 123.673 143.574 123.18C145.953 121.255 148.702 119.648 151.199 117.862C157.903 112.995 164.659 108.199 171.467 103.476C173.801 101.829 176.082 100.107 178.417 98.4614C181.021 96.625 183.671 94.8553 186.25 92.9838C190.02 90.2488 193.826 87.2687 197.796 84.8378C198.828 81.2053 199.615 77.3655 200.396 73.6707C203.07 71.7032 206.489 69.1533 209.418 67.6656C208.508 71.054 207.903 74.5475 207.296 78.0009C208.008 77.4522 208.729 76.913 209.457 76.3841C210.307 72.9339 210.844 69.3481 211.871 65.9546Z" fill="currentColor"/>
<path d="M209.63 93.9929L210.487 93.1526C212.298 95.9693 214.15 98.7277 215.784 101.655C219.457 108.33 222.06 115.536 223.497 123.013C216.444 121.808 210.245 120.023 203.635 117.297C196.816 114.391 190.987 110.357 185.245 105.735C187.133 103.975 189.394 102.455 191.492 100.954L201.295 94.0018C204.029 93.77 206.884 93.9754 209.63 93.9929Z" fill="currentColor"/>
<path d="M123.938 132.636C118.482 133.134 113.649 129.141 113.13 123.707C112.611 118.272 116.602 113.442 122.055 112.906C127.534 112.368 132.409 116.368 132.931 121.829C133.452 127.291 129.421 132.135 123.938 132.636Z" fill="currentColor"/>
<path d="M78.6626 142.652C82.9654 142.495 87.2846 142.572 91.5902 142.589L110.324 142.612L188.942 142.565C193.086 142.544 197.231 142.564 201.374 142.626C196.97 144.291 192.917 146.497 188.869 148.872C171.823 158.893 157.733 173.22 148.022 190.404C146.108 193.757 144.607 197.38 143.006 200.888L142.829 157.61C140.972 157.59 139.114 157.585 137.256 157.596C136.978 172.108 137.671 186.688 136.915 201.188L135.953 199.066C134.095 195.045 132.17 191.053 129.909 187.237C119.921 170.714 105.771 157.08 88.8621 147.689C85.5527 145.813 82.0592 144.351 78.6626 142.652ZM121.365 146.191C115.902 147.066 112.179 152.18 113.04 157.626C113.901 163.072 119.021 166.798 124.49 165.957C129.983 165.113 133.742 159.983 132.877 154.513C132.012 149.042 126.852 145.312 121.365 146.191ZM155.602 146.205C150.117 146.921 146.257 151.939 146.991 157.403C147.724 162.867 152.77 166.699 158.252 165.955C163.713 165.213 167.542 160.207 166.811 154.763C166.081 149.319 161.067 145.491 155.602 146.205Z" fill="none"/>
<path d="M124.49 165.957C119.021 166.798 113.901 163.072 113.04 157.626C112.179 152.18 115.902 147.066 121.365 146.191C126.852 145.312 132.012 149.042 132.877 154.513C133.742 159.983 129.983 165.113 124.49 165.957Z" fill="currentColor"/>
<path d="M158.252 165.955C152.77 166.699 147.724 162.867 146.99 157.403C146.257 151.939 150.117 146.921 155.602 146.205C161.067 145.491 166.081 149.319 166.811 154.763C167.541 160.207 163.713 165.213 158.252 165.955Z" fill="currentColor"/>
<path d="M123.225 222.427C120.218 221.725 117.214 220.999 114.276 220.045C102.373 216.178 90.6 209.705 81.582 200.977C70.9819 190.885 63.1072 178.293 58.6857 164.365C57.9587 162.086 56.7203 158.522 56.6855 156.169C59.0426 156.424 61.4409 157.002 63.7375 157.579C74.5681 160.26 84.6981 165.217 93.4489 172.118C108.663 184.19 121.006 202.871 123.225 222.427Z" fill="currentColor"/>
<path d="M156.967 222.293C158.786 209.678 163.82 197.738 171.588 187.613C183.699 171.919 202.249 159.204 222.238 156.577C222.603 156.537 222.781 156.445 223.104 156.646C223.118 156.712 223.136 156.778 223.147 156.844C223.339 157.938 222.591 159.401 222.328 160.465C219.854 170.515 215.071 180.068 209.06 188.473C198.804 202.814 183.642 214.314 166.829 219.838C163.968 220.778 161.055 221.661 158.079 222.156L156.967 222.293Z" fill="currentColor"/>
</svg>
