<svg width="300" height="300" viewBox="0 0 300 300" fill="none" xmlns="http://www.w3.org/2000/svg">
<g clip-path="url(#clip0_136_14770)">
<path d="M91.0452 62.3925L172.799 62.3286L208.743 62.3942C208.95 66.5362 208.874 70.7102 208.809 74.856L127.258 74.8381L90.9834 74.7637L91.0452 62.3925Z" fill="currentColor"/>
<path d="M98.2669 79.0521L100.166 79.0264L102.281 78.9971C100.78 84.3558 100.211 89.9333 100.601 95.4851C101.888 111.778 111.866 127.618 124.485 137.683C126.811 139.537 129.276 141.296 131.77 142.916C133.487 144.031 135.462 145.037 137.001 146.382C137.608 146.911 138.075 147.533 138.365 148.289C138.634 148.99 138.741 149.771 138.627 150.515C138.46 151.598 137.928 152.728 137.131 153.49C135.213 155.324 132.042 156.744 129.779 158.246C125.273 161.256 121.104 164.741 117.341 168.64C111.7 174.469 107.526 181.095 104.388 188.564C100.287 199.339 99.5404 209.678 103.04 220.765C101.449 220.816 99.8501 220.784 98.2572 220.782L98.2426 161.53C98.1128 134.037 98.1207 106.544 98.2669 79.0521ZM103.58 121.673L103.562 177.891C106.992 171.886 111.82 166.33 116.904 161.675C121.838 157.198 127.211 153.394 132.951 150.014C123.761 144.078 116.707 138.896 109.711 130.328C108.597 128.952 107.533 127.535 106.522 126.082C105.811 125.054 104.407 122.344 103.58 121.673Z" fill="currentColor"/>
<path d="M196.398 190.535C191.211 176.799 183.435 167.354 171.425 158.952C169.034 157.279 166.374 156.064 164.007 154.408C162.745 153.525 161.765 152.393 161.536 150.821C161.312 149.279 161.713 147.735 162.797 146.596C164.517 144.785 168.19 142.918 170.392 141.408C176.974 136.895 182.755 131.514 187.517 125.095C194.957 115.065 199.911 102.098 199.36 89.4995C199.205 85.963 198.396 82.6396 197.876 79.1624L201.835 79.1331L201.817 220.818C200.433 220.867 199.043 220.826 197.658 220.814C200.518 211.017 199.615 200.112 196.398 190.535ZM196.083 122.118C188.418 134.735 179.52 142.121 167.223 150.011C172.887 153.55 178.401 157.149 183.333 161.682C188.436 166.419 192.804 171.734 196.231 177.797C196.36 173.148 196.276 168.479 196.277 163.828L196.279 139.384C196.279 136.495 196.614 123.91 196.083 122.118Z" fill="currentColor"/>
<path d="M150.043 142.72C149.568 141.278 149.019 139.93 148.172 138.66C144.389 132.988 136.628 128.861 131.301 124.72C122.562 117.93 114.831 108.917 111.644 98.144L188.266 98.144C185.321 108.724 177.897 117.209 169.563 124.015C163.772 128.548 151.45 135.114 150.043 142.72Z" fill="currentColor"/>
<path d="M103.562 177.891L103.58 121.673C104.407 122.344 105.811 125.053 106.522 126.081C107.533 127.535 108.597 128.952 109.711 130.328C116.707 138.896 123.761 144.078 132.951 150.014C127.211 153.394 121.838 157.198 116.905 161.675C111.82 166.33 106.992 171.886 103.562 177.891Z" fill="none"/>
<path d="M167.223 150.011C179.52 142.122 188.418 134.735 196.083 122.118C196.613 123.911 196.279 136.495 196.279 139.385L196.277 163.828C196.276 168.48 196.36 173.149 196.231 177.797C192.803 171.734 188.436 166.419 183.333 161.682C178.4 157.149 172.887 153.55 167.223 150.011Z" fill="none"/>
<path d="M108.51 220.764C109.396 216.265 111.866 211.519 114.381 207.743C117.743 202.648 121.798 198.046 126.43 194.069C132.816 188.646 142.409 183.15 147.54 176.858C148.503 175.679 149.214 174.435 149.92 173.089C150.689 173.866 151.082 175.209 151.748 176.114C153.091 177.939 154.953 179.563 156.659 181.055C160.754 184.638 165.33 187.598 169.674 190.86C177.689 196.882 184.871 204.801 188.521 214.244C189.346 216.379 189.878 218.579 190.416 220.798C185.532 220.951 180.615 220.832 175.728 220.823L149.298 220.824L123.859 220.835C118.748 220.837 113.619 220.924 108.51 220.764Z" fill="currentColor"/>
<path d="M90.9182 225.422L117.046 225.367L209.168 225.308C209.169 229.458 209.428 233.951 209.1 238.055L182.446 238.104L90.9651 238.182C90.9267 233.929 90.9109 229.675 90.9182 225.422Z" fill="currentColor"/>
</g>
<defs>
<clipPath id="clip0_136_14770">
<rect width="300" height="300" fill="white"/>
</clipPath>
</defs>
</svg>
