<svg width="112" height="28" viewBox="0 0 112 28" fill="none" xmlns="http://www.w3.org/2000/svg">
<path d="M22.1346 1.75912C22.1735 1.45934 21.9186 1.2039 21.6194 1.24289L12.5245 2.42844C12.1463 2.47775 11.9891 2.94068 12.2588 3.21099L13.6588 4.11236C13.9672 4.31092 14.0137 4.74422 13.7545 5.00399L8.4397 10.3303C7.16069 11.6121 7.16069 13.6903 8.4397 14.9721C9.71871 16.2539 11.7924 16.2539 13.0714 14.9721L18.3859 9.64603C18.6452 9.38616 19.0777 9.43293 19.2758 9.74223L20.1707 11.1401C20.4404 11.4104 20.9024 11.2528 20.9516 10.8738L22.1346 1.75912Z" fill="url(#paint0_linear_136_3919)"/>
<path d="M9.83804 25.6458C8.55903 24.364 8.55903 22.2858 9.83804 21.0041L16.0866 14.7419C17.3656 13.4601 19.4393 13.4601 20.7183 14.7419C21.9973 16.0237 21.9973 18.1019 20.7183 19.3837L14.4697 25.6458C13.1907 26.9276 11.117 26.9276 9.83804 25.6458Z" fill="url(#paint1_linear_136_3919)"/>
<path d="M7.9187 11.0012C7.0143 12.571 7.55101 14.5784 9.11747 15.4847L15.2479 19.0318L15.2585 19.038C16.4575 19.7375 17.049 21.0839 16.8471 22.381C16.7234 23.1754 16.2056 23.8481 15.6593 24.4369L20.5027 19.5807C20.7882 19.3409 21.0374 19.0478 21.2345 18.7057C22.1389 17.1359 21.6022 15.1285 20.0357 14.2221L13.9053 10.6751L13.8947 10.6689C12.6957 9.96934 12.1042 8.62298 12.3061 7.32583C12.4298 6.53144 12.9476 5.85877 13.4939 5.26999L8.65055 10.1262C8.36502 10.366 8.11577 10.6591 7.9187 11.0012Z" fill="#0C8DF8"/>
<path d="M34.5469 21.6077C33.6177 21.6077 32.6884 21.5013 31.7592 21.2885C30.8299 21.0757 30.0241 20.764 29.3417 20.3536C28.9351 20.1256 28.681 19.8216 28.5794 19.4416C28.4777 19.0463 28.4995 18.6663 28.6447 18.3015C28.7899 17.9367 29.0222 17.6783 29.3417 17.5263C29.6611 17.3743 30.0459 17.4123 30.496 17.6403C31.0768 17.9899 31.7229 18.2483 32.4343 18.4155C33.1458 18.5827 33.85 18.6663 34.5469 18.6663C35.5924 18.6663 36.3401 18.4991 36.7902 18.1647C37.2548 17.8151 37.4872 17.3819 37.4872 16.865C37.4872 16.4242 37.3274 16.0746 37.008 15.8162C36.6886 15.5578 36.1296 15.3373 35.331 15.1549L32.8699 14.6077C30.1257 13.9997 28.7536 12.51 28.7536 10.1386C28.7536 9.12018 29.015 8.23093 29.5377 7.47089C30.0604 6.69564 30.7864 6.09521 31.7156 5.66959C32.6594 5.24396 33.7484 5.03115 34.9825 5.03115C35.7956 5.03115 36.5942 5.13756 37.3783 5.35037C38.1623 5.54798 38.852 5.8444 39.4473 6.23962C39.8103 6.46763 40.0354 6.76405 40.1225 7.12887C40.2096 7.49369 40.1806 7.84331 40.0354 8.17773C39.9047 8.51215 39.6724 8.74776 39.3384 8.88457C39.019 9.02138 38.6197 8.96817 38.1405 8.72496C37.6614 8.46655 37.1532 8.27654 36.616 8.15493C36.0788 8.03332 35.527 7.97252 34.9607 7.97252C34.046 7.97252 33.3346 8.16253 32.8264 8.54255C32.3327 8.90737 32.0859 9.3862 32.0859 9.97903C32.0859 10.4199 32.2383 10.7771 32.5432 11.0507C32.8481 11.3243 33.3781 11.5447 34.1331 11.7119L36.5942 12.2592C39.411 12.8976 40.8194 14.3417 40.8194 16.5914C40.8194 17.5947 40.5581 18.4763 40.0354 19.2364C39.5272 19.9812 38.8012 20.5664 37.8574 20.9921C36.9282 21.4025 35.8247 21.6077 34.5469 21.6077Z" fill="#232637"/>
<path d="M47.8278 21.6077C44.8222 21.6077 43.3195 20.08 43.3195 17.0246V12.738H42.4047C41.5481 12.738 41.1197 12.3124 41.1197 11.4611C41.1197 10.5947 41.5481 10.1614 42.4047 10.1614H43.3195V8.42854C43.3195 7.25808 43.8712 6.67284 44.9747 6.67284C46.0637 6.67284 46.6081 7.25808 46.6081 8.42854V10.1614H48.6772C49.5193 10.1614 49.9404 10.5947 49.9404 11.4611C49.9404 12.3124 49.5193 12.738 48.6772 12.738H46.6081V16.8878C46.6081 17.5263 46.7461 18.0051 47.022 18.3243C47.3123 18.6435 47.7697 18.8031 48.3941 18.8031C48.6119 18.8031 48.8151 18.7803 49.0039 18.7347C49.1926 18.6891 49.3669 18.6587 49.5266 18.6435C49.7299 18.6283 49.8968 18.6967 50.0275 18.8487C50.1582 19.0007 50.2235 19.3124 50.2235 19.7836C50.2235 20.1636 50.1655 20.4904 50.0493 20.764C49.9331 21.0225 49.7299 21.2125 49.4395 21.3341C49.2507 21.4101 48.9894 21.4709 48.6554 21.5165C48.336 21.5773 48.0601 21.6077 47.8278 21.6077Z" fill="#232637"/>
<path d="M56.5243 21.6077C55.3772 21.6077 54.3753 21.3721 53.5187 20.9009C52.6766 20.4144 52.0232 19.738 51.5585 18.8715C51.0939 17.9899 50.8616 16.9486 50.8616 15.7478C50.8616 14.5621 51.0939 13.536 51.5585 12.6696C52.0232 11.7879 52.6766 11.1115 53.5187 10.6403C54.3753 10.169 55.3772 9.93343 56.5243 9.93343C57.6713 9.93343 58.6659 10.169 59.508 10.6403C60.3647 11.1115 61.0253 11.7879 61.49 12.6696C61.9691 13.536 62.2087 14.5621 62.2087 15.7478C62.2087 16.9486 61.9691 17.9899 61.49 18.8715C61.0253 19.738 60.3647 20.4144 59.508 20.9009C58.6659 21.3721 57.6713 21.6077 56.5243 21.6077ZM56.5243 19.0311C57.2212 19.0311 57.7875 18.7651 58.223 18.2331C58.6732 17.7011 58.8982 16.8726 58.8982 15.7478C58.8982 14.6381 58.6732 13.8249 58.223 13.308C57.7875 12.776 57.2212 12.51 56.5243 12.51C55.8273 12.51 55.261 12.776 54.8255 13.308C54.3899 13.8249 54.1721 14.6381 54.1721 15.7478C54.1721 16.8726 54.3899 17.7011 54.8255 18.2331C55.261 18.7651 55.8273 19.0311 56.5243 19.0311Z" fill="#232637"/>
<path d="M69.197 21.6077C68.0354 21.6077 67.019 21.3721 66.1479 20.9009C65.2912 20.4144 64.6306 19.7304 64.1659 18.8487C63.7013 17.9671 63.469 16.9258 63.469 15.725C63.469 14.5241 63.7013 13.4904 64.1659 12.624C64.6306 11.7575 65.2912 11.0963 66.1479 10.6403C67.019 10.169 68.0354 9.93343 69.197 9.93343C69.6471 9.93343 70.1262 9.99423 70.6344 10.1158C71.1571 10.2222 71.6581 10.4123 72.1372 10.6859C72.5002 10.8683 72.7253 11.1267 72.8124 11.4611C72.8995 11.7803 72.8777 12.0996 72.747 12.4188C72.6309 12.738 72.4349 12.9736 72.159 13.1256C71.8976 13.2624 71.5855 13.232 71.2225 13.0344C70.6417 12.7152 70.0754 12.5556 69.5237 12.5556C68.667 12.5556 67.9991 12.8368 67.52 13.3992C67.0553 13.9465 66.823 14.7293 66.823 15.7478C66.823 16.751 67.0553 17.5415 67.52 18.1191C67.9991 18.6815 68.667 18.9627 69.5237 18.9627C69.785 18.9627 70.0609 18.9323 70.3513 18.8715C70.6417 18.7955 70.9321 18.6739 71.2225 18.5067C71.5855 18.3091 71.8976 18.2863 72.159 18.4383C72.4349 18.5903 72.6236 18.8259 72.7253 19.1452C72.8269 19.4492 72.8341 19.7684 72.747 20.1028C72.6599 20.4372 72.4421 20.6956 72.0936 20.8781C71.6 21.1365 71.1063 21.3189 70.6126 21.4253C70.119 21.5469 69.6471 21.6077 69.197 21.6077Z" fill="#232637"/>
<path d="M76.2653 21.5621C75.1618 21.5621 74.61 20.9769 74.61 19.8064V6.83245C74.61 5.66199 75.1618 5.07675 76.2653 5.07675C77.3542 5.07675 77.8987 5.66199 77.8987 6.83245V14.7901H77.9423L81.1003 11.1191C81.4197 10.7391 81.7101 10.4579 81.9715 10.2754C82.2328 10.0778 82.5958 9.97903 83.0604 9.97903C83.5105 9.97903 83.859 10.1006 84.1059 10.3439C84.3527 10.5719 84.4761 10.8683 84.4761 11.2331C84.4761 11.5827 84.3309 11.9247 84.0405 12.2592L81.2527 15.5197L84.4108 19.3276C84.6866 19.6924 84.8028 20.0496 84.7592 20.3992C84.7302 20.7336 84.585 21.0149 84.3236 21.2429C84.0623 21.4557 83.7283 21.5621 83.3218 21.5621C82.8136 21.5621 82.4143 21.4633 82.1239 21.2657C81.848 21.0681 81.5504 20.764 81.231 20.3536L77.9423 16.523H77.8987V19.8064C77.8987 20.9769 77.3542 21.5621 76.2653 21.5621Z" fill="#232637"/>
<path d="M87.7565 8.10933C87.1466 8.10933 86.6747 7.96492 86.3408 7.6761C86.0214 7.37208 85.8616 6.94646 85.8616 6.39923C85.8616 5.8368 86.0214 5.41117 86.3408 5.12236C86.6747 4.81834 87.1466 4.66633 87.7565 4.66633C89.0051 4.66633 89.6295 5.24396 89.6295 6.39923C89.6295 7.53929 89.0051 8.10933 87.7565 8.10933ZM87.7565 21.5393C87.2192 21.5393 86.8054 21.3797 86.515 21.0605C86.2392 20.726 86.1012 20.2624 86.1012 19.6696V11.8715C86.1012 10.6099 86.653 9.97903 87.7565 9.97903C88.2792 9.97903 88.6785 10.1462 88.9543 10.4807C89.2447 10.7999 89.3899 11.2635 89.3899 11.8715V19.6696C89.3899 20.2624 89.252 20.726 88.9761 21.0605C88.7002 21.3797 88.2937 21.5393 87.7565 21.5393Z" fill="#232637"/>
<path d="M97.1778 21.6077C94.1722 21.6077 92.6694 20.08 92.6694 17.0246V12.738H91.7547C90.898 12.738 90.4697 12.3124 90.4697 11.4611C90.4697 10.5947 90.898 10.1614 91.7547 10.1614H92.6694V8.42854C92.6694 7.25808 93.2212 6.67284 94.3247 6.67284C95.4136 6.67284 95.9581 7.25808 95.9581 8.42854V10.1614H98.0272C98.8693 10.1614 99.2904 10.5947 99.2904 11.4611C99.2904 12.3124 98.8693 12.738 98.0272 12.738H95.9581V16.8878C95.9581 17.5263 96.096 18.0051 96.3719 18.3243C96.6623 18.6435 97.1197 18.8031 97.744 18.8031C97.9618 18.8031 98.1651 18.7803 98.3539 18.7347C98.5426 18.6891 98.7168 18.6587 98.8766 18.6435C99.0798 18.6283 99.2468 18.6967 99.3775 18.8487C99.5082 19.0007 99.5735 19.3124 99.5735 19.7836C99.5735 20.1636 99.5154 20.4904 99.3993 20.764C99.2831 21.0225 99.0798 21.2125 98.7894 21.3341C98.6007 21.4101 98.3393 21.4709 98.0054 21.5165C97.686 21.5773 97.4101 21.6077 97.1778 21.6077Z" fill="#232637"/>
<path d="M104.088 25.6663C103.508 25.6663 103.094 25.4383 102.847 24.9823C102.615 24.5415 102.629 24.0246 102.89 23.4318L104.045 20.7412L100.495 12.2136C100.262 11.6207 100.262 11.1039 100.495 10.6631C100.742 10.207 101.228 9.97903 101.954 9.97903C102.346 9.97903 102.658 10.0778 102.89 10.2754C103.137 10.4579 103.362 10.8151 103.566 11.3471L105.787 17.2754L108.096 11.3243C108.299 10.8075 108.524 10.4579 108.771 10.2754C109.032 10.0778 109.381 9.97903 109.816 9.97903C110.368 9.97903 110.753 10.207 110.971 10.6631C111.203 11.1039 111.196 11.6131 110.949 12.1908L105.831 24.3439C105.613 24.8607 105.366 25.2103 105.09 25.3927C104.829 25.5751 104.495 25.6663 104.088 25.6663Z" fill="#232637"/>
<defs>
<linearGradient id="paint0_linear_136_3919" x1="18.9744" y1="5.18642" x2="-0.900445" y2="23.6654" gradientUnits="userSpaceOnUse">
<stop stop-color="#0C8DF8"/>
<stop offset="1" stop-color="#033A68"/>
</linearGradient>
<linearGradient id="paint1_linear_136_3919" x1="12.3405" y1="23.2783" x2="23.057" y2="12.453" gradientUnits="userSpaceOnUse">
<stop stop-color="#0C8DF8"/>
<stop offset="1" stop-color="#033A68"/>
</linearGradient>
</defs>
</svg>
